solid OpenSCAD_Model
  facet normal -0.995186 -0.0980091 0
    outer loop
      vertex -18.9 0 0
      vertex -19.0172 1.19005 3
      vertex -19.0172 1.19005 0
    endloop
  endfacet
  facet normal -0.995186 -0.0980091 0
    outer loop
      vertex -19.0172 1.19005 3
      vertex -18.9 0 0
      vertex -18.9 0 3
    endloop
  endfacet
  facet normal 0.995186 -0.0980091 0
    outer loop
      vertex -31.1 0 3
      vertex -30.9828 1.19005 0
      vertex -30.9828 1.19005 3
    endloop
  endfacet
  facet normal 0.995186 -0.0980091 0
    outer loop
      vertex -30.9828 1.19005 0
      vertex -31.1 0 3
      vertex -31.1 0 0
    endloop
  endfacet
  facet normal 0.0980133 -0.995185 0
    outer loop
      vertex -26.1901 5.98279 0
      vertex -25 6.1 3
      vertex -26.1901 5.98279 3
    endloop
  endfacet
  facet normal 0.0980133 -0.995185 0
    outer loop
      vertex -25 6.1 3
      vertex -26.1901 5.98279 0
      vertex -25 6.1 0
    endloop
  endfacet
  facet normal -0.0980133 0.995185 0
    outer loop
      vertex -23.8099 -5.98279 0
      vertex -25 -6.1 3
      vertex -23.8099 -5.98279 3
    endloop
  endfacet
  facet normal -0.0980133 0.995185 0
    outer loop
      vertex -25 -6.1 3
      vertex -23.8099 -5.98279 0
      vertex -25 -6.1 0
    endloop
  endfacet
  facet normal -0.634381 -0.773021 0
    outer loop
      vertex -21.611 5.07196 0
      vertex -20.6866 4.31335 3
      vertex -21.611 5.07196 3
    endloop
  endfacet
  facet normal -0.634381 -0.773021 -0
    outer loop
      vertex -20.6866 4.31335 3
      vertex -21.611 5.07196 0
      vertex -20.6866 4.31335 0
    endloop
  endfacet
  facet normal 0.773015 -0.634388 0
    outer loop
      vertex -30.072 3.38898 3
      vertex -29.3134 4.31335 0
      vertex -29.3134 4.31335 3
    endloop
  endfacet
  facet normal 0.773015 -0.634388 0
    outer loop
      vertex -29.3134 4.31335 0
      vertex -30.072 3.38898 3
      vertex -30.072 3.38898 0
    endloop
  endfacet
  facet normal 0.881922 -0.471396 0
    outer loop
      vertex -30.6357 2.33437 3
      vertex -30.072 3.38898 0
      vertex -30.072 3.38898 3
    endloop
  endfacet
  facet normal 0.881922 -0.471396 0
    outer loop
      vertex -30.072 3.38898 0
      vertex -30.6357 2.33437 3
      vertex -30.6357 2.33437 0
    endloop
  endfacet
  facet normal 0.4714 -0.88192 0
    outer loop
      vertex -28.389 5.07196 0
      vertex -27.3344 5.63566 3
      vertex -28.389 5.07196 3
    endloop
  endfacet
  facet normal 0.4714 -0.88192 0
    outer loop
      vertex -27.3344 5.63566 3
      vertex -28.389 5.07196 0
      vertex -27.3344 5.63566 0
    endloop
  endfacet
  facet normal -0.881922 0.471396 0
    outer loop
      vertex -19.928 -3.38898 0
      vertex -19.3643 -2.33437 3
      vertex -19.3643 -2.33437 0
    endloop
  endfacet
  facet normal -0.881922 0.471396 0
    outer loop
      vertex -19.3643 -2.33437 3
      vertex -19.928 -3.38898 0
      vertex -19.928 -3.38898 3
    endloop
  endfacet
  facet normal -0.881922 -0.471396 0
    outer loop
      vertex -19.3643 2.33437 0
      vertex -19.928 3.38898 3
      vertex -19.928 3.38898 0
    endloop
  endfacet
  facet normal -0.881922 -0.471396 0
    outer loop
      vertex -19.928 3.38898 3
      vertex -19.3643 2.33437 0
      vertex -19.3643 2.33437 3
    endloop
  endfacet
  facet normal -0.956946 -0.290265 0
    outer loop
      vertex -19.0172 1.19005 0
      vertex -19.3643 2.33437 3
      vertex -19.3643 2.33437 0
    endloop
  endfacet
  facet normal -0.956946 -0.290265 0
    outer loop
      vertex -19.3643 2.33437 3
      vertex -19.0172 1.19005 0
      vertex -19.0172 1.19005 3
    endloop
  endfacet
  facet normal -0.773015 -0.634388 0
    outer loop
      vertex -19.928 3.38898 0
      vertex -20.6866 4.31335 3
      vertex -20.6866 4.31335 0
    endloop
  endfacet
  facet normal -0.773015 -0.634388 0
    outer loop
      vertex -20.6866 4.31335 3
      vertex -19.928 3.38898 0
      vertex -19.928 3.38898 3
    endloop
  endfacet
  facet normal -0.290293 -0.956938 0
    outer loop
      vertex -23.8099 5.98279 0
      vertex -22.6656 5.63566 3
      vertex -23.8099 5.98279 3
    endloop
  endfacet
  facet normal -0.290293 -0.956938 -0
    outer loop
      vertex -22.6656 5.63566 3
      vertex -23.8099 5.98279 0
      vertex -22.6656 5.63566 0
    endloop
  endfacet
  facet normal -0.0980133 -0.995185 0
    outer loop
      vertex -25 6.1 0
      vertex -23.8099 5.98279 3
      vertex -25 6.1 3
    endloop
  endfacet
  facet normal -0.0980133 -0.995185 -0
    outer loop
      vertex -23.8099 5.98279 3
      vertex -25 6.1 0
      vertex -23.8099 5.98279 0
    endloop
  endfacet
  facet normal -0.4714 -0.88192 0
    outer loop
      vertex -22.6656 5.63566 0
      vertex -21.611 5.07196 3
      vertex -22.6656 5.63566 3
    endloop
  endfacet
  facet normal -0.4714 -0.88192 -0
    outer loop
      vertex -21.611 5.07196 3
      vertex -22.6656 5.63566 0
      vertex -21.611 5.07196 0
    endloop
  endfacet
  facet normal 0.956946 -0.290265 0
    outer loop
      vertex -30.9828 1.19005 3
      vertex -30.6357 2.33437 0
      vertex -30.6357 2.33437 3
    endloop
  endfacet
  facet normal 0.956946 -0.290265 0
    outer loop
      vertex -30.6357 2.33437 0
      vertex -30.9828 1.19005 3
      vertex -30.9828 1.19005 0
    endloop
  endfacet
  facet normal 0.634381 -0.773021 0
    outer loop
      vertex -29.3134 4.31335 0
      vertex -28.389 5.07196 3
      vertex -29.3134 4.31335 3
    endloop
  endfacet
  facet normal 0.634381 -0.773021 0
    outer loop
      vertex -28.389 5.07196 3
      vertex -29.3134 4.31335 0
      vertex -28.389 5.07196 0
    endloop
  endfacet
  facet normal 0.290293 -0.956938 0
    outer loop
      vertex -27.3344 5.63566 0
      vertex -26.1901 5.98279 3
      vertex -27.3344 5.63566 3
    endloop
  endfacet
  facet normal 0.290293 -0.956938 0
    outer loop
      vertex -26.1901 5.98279 3
      vertex -27.3344 5.63566 0
      vertex -26.1901 5.98279 0
    endloop
  endfacet
  facet normal -0.995186 0.0980091 0
    outer loop
      vertex -19.0172 -1.19005 0
      vertex -18.9 0 3
      vertex -18.9 0 0
    endloop
  endfacet
  facet normal -0.995186 0.0980091 0
    outer loop
      vertex -18.9 0 3
      vertex -19.0172 -1.19005 0
      vertex -19.0172 -1.19005 3
    endloop
  endfacet
  facet normal -0.290293 0.956938 0
    outer loop
      vertex -22.6656 -5.63566 0
      vertex -23.8099 -5.98279 3
      vertex -22.6656 -5.63566 3
    endloop
  endfacet
  facet normal -0.290293 0.956938 0
    outer loop
      vertex -23.8099 -5.98279 3
      vertex -22.6656 -5.63566 0
      vertex -23.8099 -5.98279 0
    endloop
  endfacet
  facet normal -0.956946 0.290265 0
    outer loop
      vertex -19.3643 -2.33437 0
      vertex -19.0172 -1.19005 3
      vertex -19.0172 -1.19005 0
    endloop
  endfacet
  facet normal -0.956946 0.290265 0
    outer loop
      vertex -19.0172 -1.19005 3
      vertex -19.3643 -2.33437 0
      vertex -19.3643 -2.33437 3
    endloop
  endfacet
  facet normal 0.4714 0.88192 -0
    outer loop
      vertex -27.3344 -5.63566 0
      vertex -28.389 -5.07196 3
      vertex -27.3344 -5.63566 3
    endloop
  endfacet
  facet normal 0.4714 0.88192 0
    outer loop
      vertex -28.389 -5.07196 3
      vertex -27.3344 -5.63566 0
      vertex -28.389 -5.07196 0
    endloop
  endfacet
  facet normal 0.881922 0.471396 0
    outer loop
      vertex -30.072 -3.38898 3
      vertex -30.6357 -2.33437 0
      vertex -30.6357 -2.33437 3
    endloop
  endfacet
  facet normal 0.881922 0.471396 0
    outer loop
      vertex -30.6357 -2.33437 0
      vertex -30.072 -3.38898 3
      vertex -30.072 -3.38898 0
    endloop
  endfacet
  facet normal -0.634381 0.773021 0
    outer loop
      vertex -20.6866 -4.31335 0
      vertex -21.611 -5.07196 3
      vertex -20.6866 -4.31335 3
    endloop
  endfacet
  facet normal -0.634381 0.773021 0
    outer loop
      vertex -21.611 -5.07196 3
      vertex -20.6866 -4.31335 0
      vertex -21.611 -5.07196 0
    endloop
  endfacet
  facet normal -0.4714 0.88192 0
    outer loop
      vertex -21.611 -5.07196 0
      vertex -22.6656 -5.63566 3
      vertex -21.611 -5.07196 3
    endloop
  endfacet
  facet normal -0.4714 0.88192 0
    outer loop
      vertex -22.6656 -5.63566 3
      vertex -21.611 -5.07196 0
      vertex -22.6656 -5.63566 0
    endloop
  endfacet
  facet normal 0.0980133 0.995185 -0
    outer loop
      vertex -25 -6.1 0
      vertex -26.1901 -5.98279 3
      vertex -25 -6.1 3
    endloop
  endfacet
  facet normal 0.0980133 0.995185 0
    outer loop
      vertex -26.1901 -5.98279 3
      vertex -25 -6.1 0
      vertex -26.1901 -5.98279 0
    endloop
  endfacet
  facet normal 0.956946 0.290265 0
    outer loop
      vertex -30.6357 -2.33437 3
      vertex -30.9828 -1.19005 0
      vertex -30.9828 -1.19005 3
    endloop
  endfacet
  facet normal 0.956946 0.290265 0
    outer loop
      vertex -30.9828 -1.19005 0
      vertex -30.6357 -2.33437 3
      vertex -30.6357 -2.33437 0
    endloop
  endfacet
  facet normal 0.995186 0.0980091 0
    outer loop
      vertex -30.9828 -1.19005 3
      vertex -31.1 0 0
      vertex -31.1 0 3
    endloop
  endfacet
  facet normal 0.995186 0.0980091 0
    outer loop
      vertex -31.1 0 0
      vertex -30.9828 -1.19005 3
      vertex -30.9828 -1.19005 0
    endloop
  endfacet
  facet normal -0.773015 0.634388 0
    outer loop
      vertex -20.6866 -4.31335 0
      vertex -19.928 -3.38898 3
      vertex -19.928 -3.38898 0
    endloop
  endfacet
  facet normal -0.773015 0.634388 0
    outer loop
      vertex -19.928 -3.38898 3
      vertex -20.6866 -4.31335 0
      vertex -20.6866 -4.31335 3
    endloop
  endfacet
  facet normal 0.290293 0.956938 -0
    outer loop
      vertex -26.1901 -5.98279 0
      vertex -27.3344 -5.63566 3
      vertex -26.1901 -5.98279 3
    endloop
  endfacet
  facet normal 0.290293 0.956938 0
    outer loop
      vertex -27.3344 -5.63566 3
      vertex -26.1901 -5.98279 0
      vertex -27.3344 -5.63566 0
    endloop
  endfacet
  facet normal 0.773015 0.634388 0
    outer loop
      vertex -29.3134 -4.31335 3
      vertex -30.072 -3.38898 0
      vertex -30.072 -3.38898 3
    endloop
  endfacet
  facet normal 0.773015 0.634388 0
    outer loop
      vertex -30.072 -3.38898 0
      vertex -29.3134 -4.31335 3
      vertex -29.3134 -4.31335 0
    endloop
  endfacet
  facet normal 0.634381 0.773021 -0
    outer loop
      vertex -28.389 -5.07196 0
      vertex -29.3134 -4.31335 3
      vertex -28.389 -5.07196 3
    endloop
  endfacet
  facet normal 0.634381 0.773021 0
    outer loop
      vertex -29.3134 -4.31335 3
      vertex -28.389 -5.07196 0
      vertex -29.3134 -4.31335 0
    endloop
  endfacet
  facet normal -0.881922 -0.471395 0
    outer loop
      vertex 5.72805 2.37264 0
      vertex 5.15511 3.44454 3
      vertex 5.15511 3.44454 0
    endloop
  endfacet
  facet normal -0.881922 -0.471395 0
    outer loop
      vertex 5.15511 3.44454 3
      vertex 5.72805 2.37264 0
      vertex 5.72805 2.37264 3
    endloop
  endfacet
  facet normal 0.95694 -0.290287 0
    outer loop
      vertex -6.08087 1.20956 3
      vertex -5.72805 2.37264 0
      vertex -5.72805 2.37264 3
    endloop
  endfacet
  facet normal 0.95694 -0.290287 0
    outer loop
      vertex -5.72805 2.37264 0
      vertex -6.08087 1.20956 3
      vertex -6.08087 1.20956 0
    endloop
  endfacet
  facet normal -0.773008 -0.634396 0
    outer loop
      vertex 5.15511 3.44454 0
      vertex 4.38406 4.38406 3
      vertex 4.38406 4.38406 0
    endloop
  endfacet
  facet normal -0.773008 -0.634396 0
    outer loop
      vertex 4.38406 4.38406 3
      vertex 5.15511 3.44454 0
      vertex 5.15511 3.44454 3
    endloop
  endfacet
  facet normal -0.0980161 -0.995185 0
    outer loop
      vertex 0 6.2 0
      vertex 1.20956 6.08087 3
      vertex 0 6.2 3
    endloop
  endfacet
  facet normal -0.0980161 -0.995185 -0
    outer loop
      vertex 1.20956 6.08087 3
      vertex 0 6.2 0
      vertex 1.20956 6.08087 0
    endloop
  endfacet
  facet normal -0.290287 -0.95694 0
    outer loop
      vertex 1.20956 6.08087 0
      vertex 2.37264 5.72805 3
      vertex 1.20956 6.08087 3
    endloop
  endfacet
  facet normal -0.290287 -0.95694 -0
    outer loop
      vertex 2.37264 5.72805 3
      vertex 1.20956 6.08087 0
      vertex 2.37264 5.72805 0
    endloop
  endfacet
  facet normal 0.290287 -0.95694 0
    outer loop
      vertex -2.37264 5.72805 0
      vertex -1.20956 6.08087 3
      vertex -2.37264 5.72805 3
    endloop
  endfacet
  facet normal 0.290287 -0.95694 0
    outer loop
      vertex -1.20956 6.08087 3
      vertex -2.37264 5.72805 0
      vertex -1.20956 6.08087 0
    endloop
  endfacet
  facet normal 0.881922 -0.471395 0
    outer loop
      vertex -5.72805 2.37264 3
      vertex -5.15511 3.44454 0
      vertex -5.15511 3.44454 3
    endloop
  endfacet
  facet normal 0.881922 -0.471395 0
    outer loop
      vertex -5.15511 3.44454 0
      vertex -5.72805 2.37264 3
      vertex -5.72805 2.37264 0
    endloop
  endfacet
  facet normal -0.995185 0.0980161 0
    outer loop
      vertex 6.08087 -1.20956 0
      vertex 6.2 0 3
      vertex 6.2 0 0
    endloop
  endfacet
  facet normal -0.995185 0.0980161 0
    outer loop
      vertex 6.2 0 3
      vertex 6.08087 -1.20956 0
      vertex 6.08087 -1.20956 3
    endloop
  endfacet
  facet normal -0.95694 -0.290287 0
    outer loop
      vertex 6.08087 1.20956 0
      vertex 5.72805 2.37264 3
      vertex 5.72805 2.37264 0
    endloop
  endfacet
  facet normal -0.95694 -0.290287 0
    outer loop
      vertex 5.72805 2.37264 3
      vertex 6.08087 1.20956 0
      vertex 6.08087 1.20956 3
    endloop
  endfacet
  facet normal -0.634396 -0.773008 0
    outer loop
      vertex 3.44454 5.15511 0
      vertex 4.38406 4.38406 3
      vertex 3.44454 5.15511 3
    endloop
  endfacet
  facet normal -0.634396 -0.773008 -0
    outer loop
      vertex 4.38406 4.38406 3
      vertex 3.44454 5.15511 0
      vertex 4.38406 4.38406 0
    endloop
  endfacet
  facet normal 0.0980161 -0.995185 0
    outer loop
      vertex -1.20956 6.08087 0
      vertex 0 6.2 3
      vertex -1.20956 6.08087 3
    endloop
  endfacet
  facet normal 0.0980161 -0.995185 0
    outer loop
      vertex 0 6.2 3
      vertex -1.20956 6.08087 0
      vertex 0 6.2 0
    endloop
  endfacet
  facet normal -0.471395 -0.881922 0
    outer loop
      vertex 2.37264 5.72805 0
      vertex 3.44454 5.15511 3
      vertex 2.37264 5.72805 3
    endloop
  endfacet
  facet normal -0.471395 -0.881922 -0
    outer loop
      vertex 3.44454 5.15511 3
      vertex 2.37264 5.72805 0
      vertex 3.44454 5.15511 0
    endloop
  endfacet
  facet normal 0.995185 -0.0980161 0
    outer loop
      vertex -6.2 0 3
      vertex -6.08087 1.20956 0
      vertex -6.08087 1.20956 3
    endloop
  endfacet
  facet normal 0.995185 -0.0980161 0
    outer loop
      vertex -6.08087 1.20956 0
      vertex -6.2 0 3
      vertex -6.2 0 0
    endloop
  endfacet
  facet normal 0.773008 -0.634396 0
    outer loop
      vertex -5.15511 3.44454 3
      vertex -4.38406 4.38406 0
      vertex -4.38406 4.38406 3
    endloop
  endfacet
  facet normal 0.773008 -0.634396 0
    outer loop
      vertex -4.38406 4.38406 0
      vertex -5.15511 3.44454 3
      vertex -5.15511 3.44454 0
    endloop
  endfacet
  facet normal 0.471395 -0.881922 0
    outer loop
      vertex -3.44454 5.15511 0
      vertex -2.37264 5.72805 3
      vertex -3.44454 5.15511 3
    endloop
  endfacet
  facet normal 0.471395 -0.881922 0
    outer loop
      vertex -2.37264 5.72805 3
      vertex -3.44454 5.15511 0
      vertex -2.37264 5.72805 0
    endloop
  endfacet
  facet normal 0.634396 -0.773008 0
    outer loop
      vertex -4.38406 4.38406 0
      vertex -3.44454 5.15511 3
      vertex -4.38406 4.38406 3
    endloop
  endfacet
  facet normal 0.634396 -0.773008 0
    outer loop
      vertex -3.44454 5.15511 3
      vertex -4.38406 4.38406 0
      vertex -3.44454 5.15511 0
    endloop
  endfacet
  facet normal -0.995185 -0.0980161 0
    outer loop
      vertex 6.2 0 0
      vertex 6.08087 1.20956 3
      vertex 6.08087 1.20956 0
    endloop
  endfacet
  facet normal -0.995185 -0.0980161 0
    outer loop
      vertex 6.08087 1.20956 3
      vertex 6.2 0 0
      vertex 6.2 0 3
    endloop
  endfacet
  facet normal -0.95694 0.290287 0
    outer loop
      vertex 5.72805 -2.37264 0
      vertex 6.08087 -1.20956 3
      vertex 6.08087 -1.20956 0
    endloop
  endfacet
  facet normal -0.95694 0.290287 0
    outer loop
      vertex 6.08087 -1.20956 3
      vertex 5.72805 -2.37264 0
      vertex 5.72805 -2.37264 3
    endloop
  endfacet
  facet normal 0.634396 0.773008 -0
    outer loop
      vertex -3.44454 -5.15511 0
      vertex -4.38406 -4.38406 3
      vertex -3.44454 -5.15511 3
    endloop
  endfacet
  facet normal 0.634396 0.773008 0
    outer loop
      vertex -4.38406 -4.38406 3
      vertex -3.44454 -5.15511 0
      vertex -4.38406 -4.38406 0
    endloop
  endfacet
  facet normal 0.881922 0.471395 0
    outer loop
      vertex -5.15511 -3.44454 3
      vertex -5.72805 -2.37264 0
      vertex -5.72805 -2.37264 3
    endloop
  endfacet
  facet normal 0.881922 0.471395 0
    outer loop
      vertex -5.72805 -2.37264 0
      vertex -5.15511 -3.44454 3
      vertex -5.15511 -3.44454 0
    endloop
  endfacet
  facet normal -0.0980161 0.995185 0
    outer loop
      vertex 1.20956 -6.08087 0
      vertex 0 -6.2 3
      vertex 1.20956 -6.08087 3
    endloop
  endfacet
  facet normal -0.0980161 0.995185 0
    outer loop
      vertex 0 -6.2 3
      vertex 1.20956 -6.08087 0
      vertex 0 -6.2 0
    endloop
  endfacet
  facet normal 0.773008 0.634396 0
    outer loop
      vertex -4.38406 -4.38406 3
      vertex -5.15511 -3.44454 0
      vertex -5.15511 -3.44454 3
    endloop
  endfacet
  facet normal 0.773008 0.634396 0
    outer loop
      vertex -5.15511 -3.44454 0
      vertex -4.38406 -4.38406 3
      vertex -4.38406 -4.38406 0
    endloop
  endfacet
  facet normal -0.290287 0.95694 0
    outer loop
      vertex 2.37264 -5.72805 0
      vertex 1.20956 -6.08087 3
      vertex 2.37264 -5.72805 3
    endloop
  endfacet
  facet normal -0.290287 0.95694 0
    outer loop
      vertex 1.20956 -6.08087 3
      vertex 2.37264 -5.72805 0
      vertex 1.20956 -6.08087 0
    endloop
  endfacet
  facet normal -0.471395 0.881922 0
    outer loop
      vertex 3.44454 -5.15511 0
      vertex 2.37264 -5.72805 3
      vertex 3.44454 -5.15511 3
    endloop
  endfacet
  facet normal -0.471395 0.881922 0
    outer loop
      vertex 2.37264 -5.72805 3
      vertex 3.44454 -5.15511 0
      vertex 2.37264 -5.72805 0
    endloop
  endfacet
  facet normal -0.773008 0.634396 0
    outer loop
      vertex 4.38406 -4.38406 0
      vertex 5.15511 -3.44454 3
      vertex 5.15511 -3.44454 0
    endloop
  endfacet
  facet normal -0.773008 0.634396 0
    outer loop
      vertex 5.15511 -3.44454 3
      vertex 4.38406 -4.38406 0
      vertex 4.38406 -4.38406 3
    endloop
  endfacet
  facet normal -0.634396 0.773008 0
    outer loop
      vertex 4.38406 -4.38406 0
      vertex 3.44454 -5.15511 3
      vertex 4.38406 -4.38406 3
    endloop
  endfacet
  facet normal -0.634396 0.773008 0
    outer loop
      vertex 3.44454 -5.15511 3
      vertex 4.38406 -4.38406 0
      vertex 3.44454 -5.15511 0
    endloop
  endfacet
  facet normal -0.881922 0.471395 0
    outer loop
      vertex 5.15511 -3.44454 0
      vertex 5.72805 -2.37264 3
      vertex 5.72805 -2.37264 0
    endloop
  endfacet
  facet normal -0.881922 0.471395 0
    outer loop
      vertex 5.72805 -2.37264 3
      vertex 5.15511 -3.44454 0
      vertex 5.15511 -3.44454 3
    endloop
  endfacet
  facet normal 0.290287 0.95694 -0
    outer loop
      vertex -1.20956 -6.08087 0
      vertex -2.37264 -5.72805 3
      vertex -1.20956 -6.08087 3
    endloop
  endfacet
  facet normal 0.290287 0.95694 0
    outer loop
      vertex -2.37264 -5.72805 3
      vertex -1.20956 -6.08087 0
      vertex -2.37264 -5.72805 0
    endloop
  endfacet
  facet normal 0.95694 0.290287 0
    outer loop
      vertex -5.72805 -2.37264 3
      vertex -6.08087 -1.20956 0
      vertex -6.08087 -1.20956 3
    endloop
  endfacet
  facet normal 0.95694 0.290287 0
    outer loop
      vertex -6.08087 -1.20956 0
      vertex -5.72805 -2.37264 3
      vertex -5.72805 -2.37264 0
    endloop
  endfacet
  facet normal 0.995185 0.0980161 0
    outer loop
      vertex -6.08087 -1.20956 3
      vertex -6.2 0 0
      vertex -6.2 0 3
    endloop
  endfacet
  facet normal 0.995185 0.0980161 0
    outer loop
      vertex -6.2 0 0
      vertex -6.08087 -1.20956 3
      vertex -6.08087 -1.20956 0
    endloop
  endfacet
  facet normal 0.0980161 0.995185 -0
    outer loop
      vertex 0 -6.2 0
      vertex -1.20956 -6.08087 3
      vertex 0 -6.2 3
    endloop
  endfacet
  facet normal 0.0980161 0.995185 0
    outer loop
      vertex -1.20956 -6.08087 3
      vertex 0 -6.2 0
      vertex -1.20956 -6.08087 0
    endloop
  endfacet
  facet normal 0.471395 0.881922 -0
    outer loop
      vertex -2.37264 -5.72805 0
      vertex -3.44454 -5.15511 3
      vertex -2.37264 -5.72805 3
    endloop
  endfacet
  facet normal 0.471395 0.881922 0
    outer loop
      vertex -3.44454 -5.15511 3
      vertex -2.37264 -5.72805 0
      vertex -3.44454 -5.15511 0
    endloop
  endfacet
  facet normal 0.995181 -0.098055 0
    outer loop
      vertex 18.7 0 3
      vertex 18.8211 1.22907 0
      vertex 18.8211 1.22907 3
    endloop
  endfacet
  facet normal 0.995181 -0.098055 0
    outer loop
      vertex 18.8211 1.22907 0
      vertex 18.7 0 3
      vertex 18.7 0 0
    endloop
  endfacet
  facet normal -0.471391 -0.881924 0
    outer loop
      vertex 27.4109 5.82044 0
      vertex 28.5001 5.23826 3
      vertex 27.4109 5.82044 3
    endloop
  endfacet
  facet normal -0.471391 -0.881924 -0
    outer loop
      vertex 28.5001 5.23826 3
      vertex 27.4109 5.82044 0
      vertex 28.5001 5.23826 0
    endloop
  endfacet
  facet normal -0.995181 0.098055 0
    outer loop
      vertex 31.1789 -1.22907 0
      vertex 31.3 0 3
      vertex 31.3 0 0
    endloop
  endfacet
  facet normal -0.995181 0.098055 0
    outer loop
      vertex 31.3 0 3
      vertex 31.1789 -1.22907 0
      vertex 31.1789 -1.22907 3
    endloop
  endfacet
  facet normal 0.290296 0.956937 -0
    outer loop
      vertex 23.7709 -6.17895 0
      vertex 22.5891 -5.82044 3
      vertex 23.7709 -6.17895 3
    endloop
  endfacet
  facet normal 0.290296 0.956937 0
    outer loop
      vertex 22.5891 -5.82044 3
      vertex 23.7709 -6.17895 0
      vertex 22.5891 -5.82044 0
    endloop
  endfacet
  facet normal 0.471391 -0.881924 0
    outer loop
      vertex 21.4999 5.23826 0
      vertex 22.5891 5.82044 3
      vertex 21.4999 5.23826 3
    endloop
  endfacet
  facet normal 0.471391 -0.881924 0
    outer loop
      vertex 22.5891 5.82044 3
      vertex 21.4999 5.23826 0
      vertex 22.5891 5.82044 0
    endloop
  endfacet
  facet normal 0.956941 -0.290282 0
    outer loop
      vertex 18.8211 1.22907 3
      vertex 19.1796 2.4109 0
      vertex 19.1796 2.4109 3
    endloop
  endfacet
  facet normal 0.956941 -0.290282 0
    outer loop
      vertex 19.1796 2.4109 0
      vertex 18.8211 1.22907 3
      vertex 18.8211 1.22907 0
    endloop
  endfacet
  facet normal -0.88195 -0.471344 0
    outer loop
      vertex 30.8204 2.4109 0
      vertex 30.2383 3.50009 3
      vertex 30.2383 3.50009 0
    endloop
  endfacet
  facet normal -0.88195 -0.471344 0
    outer loop
      vertex 30.2383 3.50009 3
      vertex 30.8204 2.4109 0
      vertex 30.8204 2.4109 3
    endloop
  endfacet
  facet normal -0.773005 -0.6344 0
    outer loop
      vertex 30.2383 3.50009 0
      vertex 29.4548 4.45477 3
      vertex 29.4548 4.45477 0
    endloop
  endfacet
  facet normal -0.773005 -0.6344 0
    outer loop
      vertex 29.4548 4.45477 3
      vertex 30.2383 3.50009 0
      vertex 30.2383 3.50009 3
    endloop
  endfacet
  facet normal -0.634387 -0.773015 0
    outer loop
      vertex 28.5001 5.23826 0
      vertex 29.4548 4.45477 3
      vertex 28.5001 5.23826 3
    endloop
  endfacet
  facet normal -0.634387 -0.773015 -0
    outer loop
      vertex 29.4548 4.45477 3
      vertex 28.5001 5.23826 0
      vertex 29.4548 4.45477 0
    endloop
  endfacet
  facet normal -0.290296 -0.956937 0
    outer loop
      vertex 26.2291 6.17895 0
      vertex 27.4109 5.82044 3
      vertex 26.2291 6.17895 3
    endloop
  endfacet
  facet normal -0.290296 -0.956937 -0
    outer loop
      vertex 27.4109 5.82044 3
      vertex 26.2291 6.17895 0
      vertex 27.4109 5.82044 0
    endloop
  endfacet
  facet normal 0.0980125 -0.995185 0
    outer loop
      vertex 23.7709 6.17895 0
      vertex 25 6.3 3
      vertex 23.7709 6.17895 3
    endloop
  endfacet
  facet normal 0.0980125 -0.995185 0
    outer loop
      vertex 25 6.3 3
      vertex 23.7709 6.17895 0
      vertex 25 6.3 0
    endloop
  endfacet
  facet normal 0.88195 -0.471344 0
    outer loop
      vertex 19.1796 2.4109 3
      vertex 19.7617 3.50009 0
      vertex 19.7617 3.50009 3
    endloop
  endfacet
  facet normal 0.88195 -0.471344 0
    outer loop
      vertex 19.7617 3.50009 0
      vertex 19.1796 2.4109 3
      vertex 19.1796 2.4109 0
    endloop
  endfacet
  facet normal 0.634387 -0.773015 0
    outer loop
      vertex 20.5452 4.45477 0
      vertex 21.4999 5.23826 3
      vertex 20.5452 4.45477 3
    endloop
  endfacet
  facet normal 0.634387 -0.773015 0
    outer loop
      vertex 21.4999 5.23826 3
      vertex 20.5452 4.45477 0
      vertex 21.4999 5.23826 0
    endloop
  endfacet
  facet normal 0.290296 -0.956937 0
    outer loop
      vertex 22.5891 5.82044 0
      vertex 23.7709 6.17895 3
      vertex 22.5891 5.82044 3
    endloop
  endfacet
  facet normal 0.290296 -0.956937 0
    outer loop
      vertex 23.7709 6.17895 3
      vertex 22.5891 5.82044 0
      vertex 23.7709 6.17895 0
    endloop
  endfacet
  facet normal 0.773005 -0.6344 0
    outer loop
      vertex 19.7617 3.50009 3
      vertex 20.5452 4.45477 0
      vertex 20.5452 4.45477 3
    endloop
  endfacet
  facet normal 0.773005 -0.6344 0
    outer loop
      vertex 20.5452 4.45477 0
      vertex 19.7617 3.50009 3
      vertex 19.7617 3.50009 0
    endloop
  endfacet
  facet normal -0.995181 -0.098055 0
    outer loop
      vertex 31.3 0 0
      vertex 31.1789 1.22907 3
      vertex 31.1789 1.22907 0
    endloop
  endfacet
  facet normal -0.995181 -0.098055 0
    outer loop
      vertex 31.1789 1.22907 3
      vertex 31.3 0 0
      vertex 31.3 0 3
    endloop
  endfacet
  facet normal -0.0980125 0.995185 0
    outer loop
      vertex 26.2291 -6.17895 0
      vertex 25 -6.3 3
      vertex 26.2291 -6.17895 3
    endloop
  endfacet
  facet normal -0.0980125 0.995185 0
    outer loop
      vertex 25 -6.3 3
      vertex 26.2291 -6.17895 0
      vertex 25 -6.3 0
    endloop
  endfacet
  facet normal -0.471391 0.881924 0
    outer loop
      vertex 28.5001 -5.23826 0
      vertex 27.4109 -5.82044 3
      vertex 28.5001 -5.23826 3
    endloop
  endfacet
  facet normal -0.471391 0.881924 0
    outer loop
      vertex 27.4109 -5.82044 3
      vertex 28.5001 -5.23826 0
      vertex 27.4109 -5.82044 0
    endloop
  endfacet
  facet normal -0.634387 0.773015 0
    outer loop
      vertex 29.4548 -4.45477 0
      vertex 28.5001 -5.23826 3
      vertex 29.4548 -4.45477 3
    endloop
  endfacet
  facet normal -0.634387 0.773015 0
    outer loop
      vertex 28.5001 -5.23826 3
      vertex 29.4548 -4.45477 0
      vertex 28.5001 -5.23826 0
    endloop
  endfacet
  facet normal -0.88195 0.471344 0
    outer loop
      vertex 30.2383 -3.50009 0
      vertex 30.8204 -2.4109 3
      vertex 30.8204 -2.4109 0
    endloop
  endfacet
  facet normal -0.88195 0.471344 0
    outer loop
      vertex 30.8204 -2.4109 3
      vertex 30.2383 -3.50009 0
      vertex 30.2383 -3.50009 3
    endloop
  endfacet
  facet normal 0.0980125 0.995185 -0
    outer loop
      vertex 25 -6.3 0
      vertex 23.7709 -6.17895 3
      vertex 25 -6.3 3
    endloop
  endfacet
  facet normal 0.0980125 0.995185 0
    outer loop
      vertex 23.7709 -6.17895 3
      vertex 25 -6.3 0
      vertex 23.7709 -6.17895 0
    endloop
  endfacet
  facet normal 0.634387 0.773015 -0
    outer loop
      vertex 21.4999 -5.23826 0
      vertex 20.5452 -4.45477 3
      vertex 21.4999 -5.23826 3
    endloop
  endfacet
  facet normal 0.634387 0.773015 0
    outer loop
      vertex 20.5452 -4.45477 3
      vertex 21.4999 -5.23826 0
      vertex 20.5452 -4.45477 0
    endloop
  endfacet
  facet normal 0.88195 0.471344 0
    outer loop
      vertex 19.7617 -3.50009 3
      vertex 19.1796 -2.4109 0
      vertex 19.1796 -2.4109 3
    endloop
  endfacet
  facet normal 0.88195 0.471344 0
    outer loop
      vertex 19.1796 -2.4109 0
      vertex 19.7617 -3.50009 3
      vertex 19.7617 -3.50009 0
    endloop
  endfacet
  facet normal 0.995181 0.098055 0
    outer loop
      vertex 18.8211 -1.22907 3
      vertex 18.7 0 0
      vertex 18.7 0 3
    endloop
  endfacet
  facet normal 0.995181 0.098055 0
    outer loop
      vertex 18.7 0 0
      vertex 18.8211 -1.22907 3
      vertex 18.8211 -1.22907 0
    endloop
  endfacet
  facet normal 0.773005 0.6344 0
    outer loop
      vertex 20.5452 -4.45477 3
      vertex 19.7617 -3.50009 0
      vertex 19.7617 -3.50009 3
    endloop
  endfacet
  facet normal 0.773005 0.6344 0
    outer loop
      vertex 19.7617 -3.50009 0
      vertex 20.5452 -4.45477 3
      vertex 20.5452 -4.45477 0
    endloop
  endfacet
  facet normal -0.956941 -0.290282 0
    outer loop
      vertex 31.1789 1.22907 0
      vertex 30.8204 2.4109 3
      vertex 30.8204 2.4109 0
    endloop
  endfacet
  facet normal -0.956941 -0.290282 0
    outer loop
      vertex 30.8204 2.4109 3
      vertex 31.1789 1.22907 0
      vertex 31.1789 1.22907 3
    endloop
  endfacet
  facet normal -0.0980125 -0.995185 0
    outer loop
      vertex 25 6.3 0
      vertex 26.2291 6.17895 3
      vertex 25 6.3 3
    endloop
  endfacet
  facet normal -0.0980125 -0.995185 -0
    outer loop
      vertex 26.2291 6.17895 3
      vertex 25 6.3 0
      vertex 26.2291 6.17895 0
    endloop
  endfacet
  facet normal -0.290296 0.956937 0
    outer loop
      vertex 27.4109 -5.82044 0
      vertex 26.2291 -6.17895 3
      vertex 27.4109 -5.82044 3
    endloop
  endfacet
  facet normal -0.290296 0.956937 0
    outer loop
      vertex 26.2291 -6.17895 3
      vertex 27.4109 -5.82044 0
      vertex 26.2291 -6.17895 0
    endloop
  endfacet
  facet normal -0.773005 0.6344 0
    outer loop
      vertex 29.4548 -4.45477 0
      vertex 30.2383 -3.50009 3
      vertex 30.2383 -3.50009 0
    endloop
  endfacet
  facet normal -0.773005 0.6344 0
    outer loop
      vertex 30.2383 -3.50009 3
      vertex 29.4548 -4.45477 0
      vertex 29.4548 -4.45477 3
    endloop
  endfacet
  facet normal -0.956941 0.290282 0
    outer loop
      vertex 30.8204 -2.4109 0
      vertex 31.1789 -1.22907 3
      vertex 31.1789 -1.22907 0
    endloop
  endfacet
  facet normal -0.956941 0.290282 0
    outer loop
      vertex 31.1789 -1.22907 3
      vertex 30.8204 -2.4109 0
      vertex 30.8204 -2.4109 3
    endloop
  endfacet
  facet normal 0.471391 0.881924 -0
    outer loop
      vertex 22.5891 -5.82044 0
      vertex 21.4999 -5.23826 3
      vertex 22.5891 -5.82044 3
    endloop
  endfacet
  facet normal 0.471391 0.881924 0
    outer loop
      vertex 21.4999 -5.23826 3
      vertex 22.5891 -5.82044 0
      vertex 21.4999 -5.23826 0
    endloop
  endfacet
  facet normal 0.956941 0.290282 0
    outer loop
      vertex 19.1796 -2.4109 3
      vertex 18.8211 -1.22907 0
      vertex 18.8211 -1.22907 3
    endloop
  endfacet
  facet normal 0.956941 0.290282 0
    outer loop
      vertex 18.8211 -1.22907 0
      vertex 19.1796 -2.4109 3
      vertex 19.1796 -2.4109 0
    endloop
  endfacet
  facet normal 0.4714 -0.881919 0
    outer loop
      vertex 37.1481 -13.7716 0
      vertex 37.6667 -13.4944 3
      vertex 37.1481 -13.7716 3
    endloop
  endfacet
  facet normal 0.4714 -0.881919 0
    outer loop
      vertex 37.6667 -13.4944 3
      vertex 37.1481 -13.7716 0
      vertex 37.6667 -13.4944 0
    endloop
  endfacet
  facet normal 0.634413 -0.772994 0
    outer loop
      vertex 37.6667 -13.4944 0
      vertex 38.1213 -13.1213 3
      vertex 37.6667 -13.4944 3
    endloop
  endfacet
  facet normal 0.634413 -0.772994 0
    outer loop
      vertex 38.1213 -13.1213 3
      vertex 37.6667 -13.4944 0
      vertex 38.1213 -13.1213 0
    endloop
  endfacet
  facet normal 0.290404 -0.956904 0
    outer loop
      vertex 36.5853 -13.9424 0
      vertex 37.1481 -13.7716 3
      vertex 36.5853 -13.9424 3
    endloop
  endfacet
  facet normal 0.290404 -0.956904 0
    outer loop
      vertex 37.1481 -13.7716 3
      vertex 36.5853 -13.9424 0
      vertex 37.1481 -13.7716 0
    endloop
  endfacet
  facet normal 0 1 -0
    outer loop
      vertex 36 14 0
      vertex -36 14 3
      vertex 36 14 3
    endloop
  endfacet
  facet normal 0 1 0
    outer loop
      vertex -36 14 3
      vertex 36 14 0
      vertex -36 14 0
    endloop
  endfacet
  facet normal 1 -0 0
    outer loop
      vertex 39 -11 3
      vertex 39 11 0
      vertex 39 11 3
    endloop
  endfacet
  facet normal 1 0 0
    outer loop
      vertex 39 11 0
      vertex 39 -11 3
      vertex 39 -11 0
    endloop
  endfacet
  facet normal -0.290404 -0.956904 0
    outer loop
      vertex -37.1481 -13.7716 0
      vertex -36.5853 -13.9424 3
      vertex -37.1481 -13.7716 3
    endloop
  endfacet
  facet normal -0.290404 -0.956904 -0
    outer loop
      vertex -36.5853 -13.9424 3
      vertex -37.1481 -13.7716 0
      vertex -36.5853 -13.9424 0
    endloop
  endfacet
  facet normal 0 0 1
    outer loop
      vertex 36 14 3
      vertex 39 11 3
      vertex 38.9424 11.5853 3
    endloop
  endfacet
  facet normal 0 0 1
    outer loop
      vertex 39 11 3
      vertex 31.3 0 3
      vertex 39 -11 3
    endloop
  endfacet
  facet normal 0 0 1
    outer loop
      vertex 36 14 3
      vertex 38.9424 11.5853 3
      vertex 38.7716 12.1481 3
    endloop
  endfacet
  facet normal -0 0 1
    outer loop
      vertex 31.1789 -1.22907 3
      vertex 39 -11 3
      vertex 31.3 0 3
    endloop
  endfacet
  facet normal 0 0 1
    outer loop
      vertex 36 14 3
      vertex 38.7716 12.1481 3
      vertex 38.4944 12.6667 3
    endloop
  endfacet
  facet normal -0 0 1
    outer loop
      vertex 30.8204 -2.4109 3
      vertex 39 -11 3
      vertex 31.1789 -1.22907 3
    endloop
  endfacet
  facet normal 0 0 1
    outer loop
      vertex 36 14 3
      vertex 38.4944 12.6667 3
      vertex 38.1213 13.1213 3
    endloop
  endfacet
  facet normal -0 0 1
    outer loop
      vertex 30.2383 -3.50009 3
      vertex 39 -11 3
      vertex 30.8204 -2.4109 3
    endloop
  endfacet
  facet normal 0 0 1
    outer loop
      vertex 36 14 3
      vertex 38.1213 13.1213 3
      vertex 37.6667 13.4944 3
    endloop
  endfacet
  facet normal -0 0 1
    outer loop
      vertex 29.4548 -4.45477 3
      vertex 39 -11 3
      vertex 30.2383 -3.50009 3
    endloop
  endfacet
  facet normal 0 0 1
    outer loop
      vertex 36 14 3
      vertex 37.6667 13.4944 3
      vertex 37.1481 13.7716 3
    endloop
  endfacet
  facet normal 0 -0 1
    outer loop
      vertex 36 -14 3
      vertex 39 -11 3
      vertex 29.4548 -4.45477 3
    endloop
  endfacet
  facet normal 0 0 1
    outer loop
      vertex 36 14 3
      vertex 37.1481 13.7716 3
      vertex 36.5853 13.9424 3
    endloop
  endfacet
  facet normal 0 0 1
    outer loop
      vertex 39 -11 3
      vertex 36 -14 3
      vertex 38.9424 -11.5853 3
    endloop
  endfacet
  facet normal 0 0 1
    outer loop
      vertex 39 11 3
      vertex 36 14 3
      vertex 29.4548 4.45477 3
    endloop
  endfacet
  facet normal 0 0 1
    outer loop
      vertex 38.9424 -11.5853 3
      vertex 36 -14 3
      vertex 38.7716 -12.1481 3
    endloop
  endfacet
  facet normal 0 0 1
    outer loop
      vertex 38.4944 -12.6667 3
      vertex 36 -14 3
      vertex 38.1213 -13.1213 3
    endloop
  endfacet
  facet normal 0 0 1
    outer loop
      vertex 39 11 3
      vertex 31.1789 1.22907 3
      vertex 31.3 0 3
    endloop
  endfacet
  facet normal 0 0 1
    outer loop
      vertex 39 11 3
      vertex 30.8204 2.4109 3
      vertex 31.1789 1.22907 3
    endloop
  endfacet
  facet normal 0 0 1
    outer loop
      vertex 39 11 3
      vertex 30.2383 3.50009 3
      vertex 30.8204 2.4109 3
    endloop
  endfacet
  facet normal 0 0 1
    outer loop
      vertex 39 11 3
      vertex 29.4548 4.45477 3
      vertex 30.2383 3.50009 3
    endloop
  endfacet
  facet normal 0 0 1
    outer loop
      vertex 36 14 3
      vertex 28.5001 5.23826 3
      vertex 29.4548 4.45477 3
    endloop
  endfacet
  facet normal 0 0 1
    outer loop
      vertex 36 14 3
      vertex 27.4109 5.82044 3
      vertex 28.5001 5.23826 3
    endloop
  endfacet
  facet normal 0 0 1
    outer loop
      vertex 36 14 3
      vertex 26.2291 6.17895 3
      vertex 27.4109 5.82044 3
    endloop
  endfacet
  facet normal 0 0 1
    outer loop
      vertex 36 14 3
      vertex 25 6.3 3
      vertex 26.2291 6.17895 3
    endloop
  endfacet
  facet normal 0 0 1
    outer loop
      vertex 36 14 3
      vertex 23.7709 6.17895 3
      vertex 25 6.3 3
    endloop
  endfacet
  facet normal 0 0 1
    outer loop
      vertex 36 14 3
      vertex 22.5891 5.82044 3
      vertex 23.7709 6.17895 3
    endloop
  endfacet
  facet normal 0 0 1
    outer loop
      vertex 2.37264 5.72805 3
      vertex 22.5891 5.82044 3
      vertex 36 14 3
    endloop
  endfacet
  facet normal 0 0 1
    outer loop
      vertex 18.8211 1.22907 3
      vertex 6.2 0 3
      vertex 18.7 0 3
    endloop
  endfacet
  facet normal 0 0 1
    outer loop
      vertex 6.08087 1.20956 3
      vertex 18.8211 1.22907 3
      vertex 19.1796 2.4109 3
    endloop
  endfacet
  facet normal 0 0 1
    outer loop
      vertex 5.72805 2.37264 3
      vertex 19.1796 2.4109 3
      vertex 19.7617 3.50009 3
    endloop
  endfacet
  facet normal 0 0 1
    outer loop
      vertex 5.15511 3.44454 3
      vertex 19.7617 3.50009 3
      vertex 20.5452 4.45477 3
    endloop
  endfacet
  facet normal 0 0 1
    outer loop
      vertex 4.38406 4.38406 3
      vertex 20.5452 4.45477 3
      vertex 21.4999 5.23826 3
    endloop
  endfacet
  facet normal 0 0 1
    outer loop
      vertex 22.5891 5.82044 3
      vertex 2.37264 5.72805 3
      vertex 21.4999 5.23826 3
    endloop
  endfacet
  facet normal 0 0 1
    outer loop
      vertex 18.8211 1.22907 3
      vertex 6.08087 1.20956 3
      vertex 6.2 0 3
    endloop
  endfacet
  facet normal 0 0 1
    outer loop
      vertex 19.1796 2.4109 3
      vertex 5.72805 2.37264 3
      vertex 6.08087 1.20956 3
    endloop
  endfacet
  facet normal 0 0 1
    outer loop
      vertex 19.7617 3.50009 3
      vertex 5.15511 3.44454 3
      vertex 5.72805 2.37264 3
    endloop
  endfacet
  facet normal 0 0 1
    outer loop
      vertex 20.5452 4.45477 3
      vertex 4.38406 4.38406 3
      vertex 5.15511 3.44454 3
    endloop
  endfacet
  facet normal 0 0 1
    outer loop
      vertex 21.4999 5.23826 3
      vertex 3.44454 5.15511 3
      vertex 4.38406 4.38406 3
    endloop
  endfacet
  facet normal 0 0 1
    outer loop
      vertex 21.4999 5.23826 3
      vertex 2.37264 5.72805 3
      vertex 3.44454 5.15511 3
    endloop
  endfacet
  facet normal 0 0 1
    outer loop
      vertex 36 14 3
      vertex 1.20956 6.08087 3
      vertex 2.37264 5.72805 3
    endloop
  endfacet
  facet normal 0 0 1
    outer loop
      vertex 36 14 3
      vertex 0 6.2 3
      vertex 1.20956 6.08087 3
    endloop
  endfacet
  facet normal -0 0 1
    outer loop
      vertex -36 14 3
      vertex 0 6.2 3
      vertex 36 14 3
    endloop
  endfacet
  facet normal 0 0 1
    outer loop
      vertex -6.08087 1.20956 3
      vertex -18.9 0 3
      vertex -6.2 0 3
    endloop
  endfacet
  facet normal 0 0 1
    outer loop
      vertex -19.0172 1.19005 3
      vertex -6.08087 1.20956 3
      vertex -5.72805 2.37264 3
    endloop
  endfacet
  facet normal 0 0 1
    outer loop
      vertex -19.3643 2.33437 3
      vertex -5.72805 2.37264 3
      vertex -5.15511 3.44454 3
    endloop
  endfacet
  facet normal 0 0 1
    outer loop
      vertex -19.928 3.38898 3
      vertex -5.15511 3.44454 3
      vertex -4.38406 4.38406 3
    endloop
  endfacet
  facet normal 0 0 1
    outer loop
      vertex -20.6866 4.31335 3
      vertex -4.38406 4.38406 3
      vertex -3.44454 5.15511 3
    endloop
  endfacet
  facet normal 0 0 1
    outer loop
      vertex -21.611 5.07196 3
      vertex -3.44454 5.15511 3
      vertex -2.37264 5.72805 3
    endloop
  endfacet
  facet normal 0 0 1
    outer loop
      vertex -6.08087 1.20956 3
      vertex -19.0172 1.19005 3
      vertex -18.9 0 3
    endloop
  endfacet
  facet normal 0 0 1
    outer loop
      vertex -36 14 3
      vertex -2.37264 5.72805 3
      vertex -1.20956 6.08087 3
    endloop
  endfacet
  facet normal 0 0 1
    outer loop
      vertex -5.72805 2.37264 3
      vertex -19.3643 2.33437 3
      vertex -19.0172 1.19005 3
    endloop
  endfacet
  facet normal 0 0 1
    outer loop
      vertex 0 6.2 3
      vertex -36 14 3
      vertex -1.20956 6.08087 3
    endloop
  endfacet
  facet normal 0 0 1
    outer loop
      vertex -5.15511 3.44454 3
      vertex -19.928 3.38898 3
      vertex -19.3643 2.33437 3
    endloop
  endfacet
  facet normal 0 0 1
    outer loop
      vertex -4.38406 4.38406 3
      vertex -20.6866 4.31335 3
      vertex -19.928 3.38898 3
    endloop
  endfacet
  facet normal 0 0 1
    outer loop
      vertex -3.44454 5.15511 3
      vertex -21.611 5.07196 3
      vertex -20.6866 4.31335 3
    endloop
  endfacet
  facet normal 0 0 1
    outer loop
      vertex -2.37264 5.72805 3
      vertex -22.6656 5.63566 3
      vertex -21.611 5.07196 3
    endloop
  endfacet
  facet normal 0 0 1
    outer loop
      vertex -2.37264 5.72805 3
      vertex -36 14 3
      vertex -22.6656 5.63566 3
    endloop
  endfacet
  facet normal 0 0 1
    outer loop
      vertex -22.6656 5.63566 3
      vertex -36 14 3
      vertex -23.8099 5.98279 3
    endloop
  endfacet
  facet normal 0 0 1
    outer loop
      vertex -23.8099 5.98279 3
      vertex -36 14 3
      vertex -25 6.1 3
    endloop
  endfacet
  facet normal 0 0 1
    outer loop
      vertex -30.6357 2.33437 3
      vertex -39 11 3
      vertex -30.9828 1.19005 3
    endloop
  endfacet
  facet normal 0 0 1
    outer loop
      vertex -30.072 3.38898 3
      vertex -39 11 3
      vertex -30.6357 2.33437 3
    endloop
  endfacet
  facet normal 0 0 1
    outer loop
      vertex -29.3134 4.31335 3
      vertex -39 11 3
      vertex -30.072 3.38898 3
    endloop
  endfacet
  facet normal -0 0 1
    outer loop
      vertex -39 11 3
      vertex -29.3134 4.31335 3
      vertex -36 14 3
    endloop
  endfacet
  facet normal 0 0 1
    outer loop
      vertex -28.389 5.07196 3
      vertex -36 14 3
      vertex -29.3134 4.31335 3
    endloop
  endfacet
  facet normal 0 0 1
    outer loop
      vertex -27.3344 5.63566 3
      vertex -36 14 3
      vertex -28.389 5.07196 3
    endloop
  endfacet
  facet normal 0 0 1
    outer loop
      vertex -26.1901 5.98279 3
      vertex -36 14 3
      vertex -27.3344 5.63566 3
    endloop
  endfacet
  facet normal 0 0 1
    outer loop
      vertex -25 6.1 3
      vertex -36 14 3
      vertex -26.1901 5.98279 3
    endloop
  endfacet
  facet normal 0 0 1
    outer loop
      vertex 38.1213 -13.1213 3
      vertex 36 -14 3
      vertex 37.6667 -13.4944 3
    endloop
  endfacet
  facet normal 0 0 1
    outer loop
      vertex 37.6667 -13.4944 3
      vertex 36 -14 3
      vertex 37.1481 -13.7716 3
    endloop
  endfacet
  facet normal 0 0 1
    outer loop
      vertex 37.1481 -13.7716 3
      vertex 36 -14 3
      vertex 36.5853 -13.9424 3
    endloop
  endfacet
  facet normal 0 0 1
    outer loop
      vertex 38.7716 -12.1481 3
      vertex 36 -14 3
      vertex 38.4944 -12.6667 3
    endloop
  endfacet
  facet normal -0 0 1
    outer loop
      vertex 28.5001 -5.23826 3
      vertex 36 -14 3
      vertex 29.4548 -4.45477 3
    endloop
  endfacet
  facet normal -0 0 1
    outer loop
      vertex 27.4109 -5.82044 3
      vertex 36 -14 3
      vertex 28.5001 -5.23826 3
    endloop
  endfacet
  facet normal -0 0 1
    outer loop
      vertex 26.2291 -6.17895 3
      vertex 36 -14 3
      vertex 27.4109 -5.82044 3
    endloop
  endfacet
  facet normal -0 0 1
    outer loop
      vertex 25 -6.3 3
      vertex 36 -14 3
      vertex 26.2291 -6.17895 3
    endloop
  endfacet
  facet normal 0 0 1
    outer loop
      vertex 23.7709 -6.17895 3
      vertex 36 -14 3
      vertex 25 -6.3 3
    endloop
  endfacet
  facet normal 0 0 1
    outer loop
      vertex 22.5891 -5.82044 3
      vertex 36 -14 3
      vertex 23.7709 -6.17895 3
    endloop
  endfacet
  facet normal -0 0 1
    outer loop
      vertex 2.37264 -5.72805 3
      vertex 22.5891 -5.82044 3
      vertex 21.4999 -5.23826 3
    endloop
  endfacet
  facet normal -0 0 1
    outer loop
      vertex 6.2 0 3
      vertex 18.8211 -1.22907 3
      vertex 18.7 0 3
    endloop
  endfacet
  facet normal -0 0 1
    outer loop
      vertex 6.08087 -1.20956 3
      vertex 18.8211 -1.22907 3
      vertex 6.2 0 3
    endloop
  endfacet
  facet normal 0 0 1
    outer loop
      vertex 18.8211 -1.22907 3
      vertex 6.08087 -1.20956 3
      vertex 19.1796 -2.4109 3
    endloop
  endfacet
  facet normal -0 0 1
    outer loop
      vertex 5.72805 -2.37264 3
      vertex 19.1796 -2.4109 3
      vertex 6.08087 -1.20956 3
    endloop
  endfacet
  facet normal 0 0 1
    outer loop
      vertex 19.1796 -2.4109 3
      vertex 5.72805 -2.37264 3
      vertex 19.7617 -3.50009 3
    endloop
  endfacet
  facet normal -0 0 1
    outer loop
      vertex 5.15511 -3.44454 3
      vertex 19.7617 -3.50009 3
      vertex 5.72805 -2.37264 3
    endloop
  endfacet
  facet normal 0 0 1
    outer loop
      vertex 19.7617 -3.50009 3
      vertex 5.15511 -3.44454 3
      vertex 20.5452 -4.45477 3
    endloop
  endfacet
  facet normal -0 0 1
    outer loop
      vertex 4.38406 -4.38406 3
      vertex 20.5452 -4.45477 3
      vertex 5.15511 -3.44454 3
    endloop
  endfacet
  facet normal 0 0 1
    outer loop
      vertex 20.5452 -4.45477 3
      vertex 4.38406 -4.38406 3
      vertex 21.4999 -5.23826 3
    endloop
  endfacet
  facet normal -0 0 1
    outer loop
      vertex 3.44454 -5.15511 3
      vertex 21.4999 -5.23826 3
      vertex 4.38406 -4.38406 3
    endloop
  endfacet
  facet normal 0 0 1
    outer loop
      vertex 2.37264 -5.72805 3
      vertex 21.4999 -5.23826 3
      vertex 3.44454 -5.15511 3
    endloop
  endfacet
  facet normal 0 0 1
    outer loop
      vertex 22.5891 -5.82044 3
      vertex 2.37264 -5.72805 3
      vertex 36 -14 3
    endloop
  endfacet
  facet normal -0 0 1
    outer loop
      vertex 1.20956 -6.08087 3
      vertex 36 -14 3
      vertex 2.37264 -5.72805 3
    endloop
  endfacet
  facet normal -0 0 1
    outer loop
      vertex 0 -6.2 3
      vertex 36 -14 3
      vertex 1.20956 -6.08087 3
    endloop
  endfacet
  facet normal 0 0 1
    outer loop
      vertex -36 -14 3
      vertex 0 -6.2 3
      vertex -1.20956 -6.08087 3
    endloop
  endfacet
  facet normal -0 0 1
    outer loop
      vertex -18.9 0 3
      vertex -6.08087 -1.20956 3
      vertex -6.2 0 3
    endloop
  endfacet
  facet normal -0 0 1
    outer loop
      vertex -19.0172 -1.19005 3
      vertex -6.08087 -1.20956 3
      vertex -18.9 0 3
    endloop
  endfacet
  facet normal 0 0 1
    outer loop
      vertex -6.08087 -1.20956 3
      vertex -19.0172 -1.19005 3
      vertex -5.72805 -2.37264 3
    endloop
  endfacet
  facet normal -0 0 1
    outer loop
      vertex -19.3643 -2.33437 3
      vertex -5.72805 -2.37264 3
      vertex -19.0172 -1.19005 3
    endloop
  endfacet
  facet normal 0 0 1
    outer loop
      vertex -5.72805 -2.37264 3
      vertex -19.3643 -2.33437 3
      vertex -5.15511 -3.44454 3
    endloop
  endfacet
  facet normal -0 0 1
    outer loop
      vertex -19.928 -3.38898 3
      vertex -5.15511 -3.44454 3
      vertex -19.3643 -2.33437 3
    endloop
  endfacet
  facet normal 0 0 1
    outer loop
      vertex -5.15511 -3.44454 3
      vertex -19.928 -3.38898 3
      vertex -4.38406 -4.38406 3
    endloop
  endfacet
  facet normal -0 0 1
    outer loop
      vertex -20.6866 -4.31335 3
      vertex -4.38406 -4.38406 3
      vertex -19.928 -3.38898 3
    endloop
  endfacet
  facet normal 0 0 1
    outer loop
      vertex -4.38406 -4.38406 3
      vertex -20.6866 -4.31335 3
      vertex -3.44454 -5.15511 3
    endloop
  endfacet
  facet normal -0 0 1
    outer loop
      vertex -21.611 -5.07196 3
      vertex -3.44454 -5.15511 3
      vertex -20.6866 -4.31335 3
    endloop
  endfacet
  facet normal 0 0 1
    outer loop
      vertex -3.44454 -5.15511 3
      vertex -21.611 -5.07196 3
      vertex -2.37264 -5.72805 3
    endloop
  endfacet
  facet normal -0 0 1
    outer loop
      vertex -22.6656 -5.63566 3
      vertex -2.37264 -5.72805 3
      vertex -21.611 -5.07196 3
    endloop
  endfacet
  facet normal 0 0 1
    outer loop
      vertex -36 -14 3
      vertex -2.37264 -5.72805 3
      vertex -22.6656 -5.63566 3
    endloop
  endfacet
  facet normal 0 0 1
    outer loop
      vertex -2.37264 -5.72805 3
      vertex -36 -14 3
      vertex -1.20956 -6.08087 3
    endloop
  endfacet
  facet normal 0 0 1
    outer loop
      vertex -36 -14 3
      vertex -22.6656 -5.63566 3
      vertex -23.8099 -5.98279 3
    endloop
  endfacet
  facet normal 0 0 1
    outer loop
      vertex -36 -14 3
      vertex -23.8099 -5.98279 3
      vertex -25 -6.1 3
    endloop
  endfacet
  facet normal 0 0 1
    outer loop
      vertex -36 -14 3
      vertex -25 -6.1 3
      vertex -26.1901 -5.98279 3
    endloop
  endfacet
  facet normal 0 0 1
    outer loop
      vertex -30.9828 1.19005 3
      vertex -39 11 3
      vertex -31.1 0 3
    endloop
  endfacet
  facet normal 0 0 1
    outer loop
      vertex -39 -11 3
      vertex -31.1 0 3
      vertex -39 11 3
    endloop
  endfacet
  facet normal 0 0 1
    outer loop
      vertex 0 -6.2 3
      vertex -36 -14 3
      vertex 36 -14 3
    endloop
  endfacet
  facet normal 0 0 1
    outer loop
      vertex -27.3344 -5.63566 3
      vertex -36 -14 3
      vertex -26.1901 -5.98279 3
    endloop
  endfacet
  facet normal 0 0 1
    outer loop
      vertex -28.389 -5.07196 3
      vertex -36 -14 3
      vertex -27.3344 -5.63566 3
    endloop
  endfacet
  facet normal 0 0 1
    outer loop
      vertex -29.3134 -4.31335 3
      vertex -36 -14 3
      vertex -28.389 -5.07196 3
    endloop
  endfacet
  facet normal 0 0 1
    outer loop
      vertex -39 -11 3
      vertex -29.3134 -4.31335 3
      vertex -30.072 -3.38898 3
    endloop
  endfacet
  facet normal 0 0 1
    outer loop
      vertex -39 -11 3
      vertex -30.072 -3.38898 3
      vertex -30.6357 -2.33437 3
    endloop
  endfacet
  facet normal 0 0 1
    outer loop
      vertex -31.1 0 3
      vertex -39 -11 3
      vertex -30.9828 -1.19005 3
    endloop
  endfacet
  facet normal 0 0 1
    outer loop
      vertex -39 11 3
      vertex -36 14 3
      vertex -36.5853 13.9424 3
    endloop
  endfacet
  facet normal 0 0 1
    outer loop
      vertex -30.9828 -1.19005 3
      vertex -39 -11 3
      vertex -30.6357 -2.33437 3
    endloop
  endfacet
  facet normal 0 0 1
    outer loop
      vertex -39 11 3
      vertex -36.5853 13.9424 3
      vertex -37.1481 13.7716 3
    endloop
  endfacet
  facet normal 0 0 1
    outer loop
      vertex -29.3134 -4.31335 3
      vertex -39 -11 3
      vertex -36 -14 3
    endloop
  endfacet
  facet normal 0 0 1
    outer loop
      vertex -39 11 3
      vertex -37.1481 13.7716 3
      vertex -37.6667 13.4944 3
    endloop
  endfacet
  facet normal 0 0 1
    outer loop
      vertex -36 -14 3
      vertex -39 -11 3
      vertex -36.5853 -13.9424 3
    endloop
  endfacet
  facet normal 0 0 1
    outer loop
      vertex -39 11 3
      vertex -37.6667 13.4944 3
      vertex -38.1213 13.1213 3
    endloop
  endfacet
  facet normal 0 0 1
    outer loop
      vertex -36.5853 -13.9424 3
      vertex -39 -11 3
      vertex -37.1481 -13.7716 3
    endloop
  endfacet
  facet normal 0 0 1
    outer loop
      vertex -39 11 3
      vertex -38.1213 13.1213 3
      vertex -38.4944 12.6667 3
    endloop
  endfacet
  facet normal 0 0 1
    outer loop
      vertex -37.1481 -13.7716 3
      vertex -39 -11 3
      vertex -37.6667 -13.4944 3
    endloop
  endfacet
  facet normal 0 0 1
    outer loop
      vertex -39 11 3
      vertex -38.4944 12.6667 3
      vertex -38.7716 12.1481 3
    endloop
  endfacet
  facet normal 0 0 1
    outer loop
      vertex -37.6667 -13.4944 3
      vertex -39 -11 3
      vertex -38.1213 -13.1213 3
    endloop
  endfacet
  facet normal 0 0 1
    outer loop
      vertex -39 11 3
      vertex -38.7716 12.1481 3
      vertex -38.9424 11.5853 3
    endloop
  endfacet
  facet normal 0 0 1
    outer loop
      vertex -38.1213 -13.1213 3
      vertex -39 -11 3
      vertex -38.4944 -12.6667 3
    endloop
  endfacet
  facet normal 0 0 1
    outer loop
      vertex -38.4944 -12.6667 3
      vertex -39 -11 3
      vertex -38.7716 -12.1481 3
    endloop
  endfacet
  facet normal 0 0 1
    outer loop
      vertex -38.7716 -12.1481 3
      vertex -39 -11 3
      vertex -38.9424 -11.5853 3
    endloop
  endfacet
  facet normal -0.4714 0.881919 0
    outer loop
      vertex -37.1481 13.7716 0
      vertex -37.6667 13.4944 3
      vertex -37.1481 13.7716 3
    endloop
  endfacet
  facet normal -0.4714 0.881919 0
    outer loop
      vertex -37.6667 13.4944 3
      vertex -37.1481 13.7716 0
      vertex -37.6667 13.4944 0
    endloop
  endfacet
  facet normal 0.4714 0.881919 -0
    outer loop
      vertex 37.6667 13.4944 0
      vertex 37.1481 13.7716 3
      vertex 37.6667 13.4944 3
    endloop
  endfacet
  facet normal 0.4714 0.881919 0
    outer loop
      vertex 37.1481 13.7716 3
      vertex 37.6667 13.4944 0
      vertex 37.1481 13.7716 0
    endloop
  endfacet
  facet normal 0.097938 -0.995193 0
    outer loop
      vertex 36 -14 0
      vertex 36.5853 -13.9424 3
      vertex 36 -14 3
    endloop
  endfacet
  facet normal 0.097938 -0.995193 0
    outer loop
      vertex 36.5853 -13.9424 3
      vertex 36 -14 0
      vertex 36.5853 -13.9424 0
    endloop
  endfacet
  facet normal 0.772994 -0.634413 0
    outer loop
      vertex 38.1213 -13.1213 3
      vertex 38.4944 -12.6667 0
      vertex 38.4944 -12.6667 3
    endloop
  endfacet
  facet normal 0.772994 -0.634413 0
    outer loop
      vertex 38.4944 -12.6667 0
      vertex 38.1213 -13.1213 3
      vertex 38.1213 -13.1213 0
    endloop
  endfacet
  facet normal 0 -1 0
    outer loop
      vertex -36 -14 0
      vertex 36 -14 3
      vertex -36 -14 3
    endloop
  endfacet
  facet normal 0 -1 -0
    outer loop
      vertex 36 -14 3
      vertex -36 -14 0
      vertex 36 -14 0
    endloop
  endfacet
  facet normal -1 0 0
    outer loop
      vertex -39 -11 0
      vertex -39 11 3
      vertex -39 11 0
    endloop
  endfacet
  facet normal -1 -0 0
    outer loop
      vertex -39 11 3
      vertex -39 -11 0
      vertex -39 -11 3
    endloop
  endfacet
  facet normal -0.4714 -0.881919 0
    outer loop
      vertex -37.6667 -13.4944 0
      vertex -37.1481 -13.7716 3
      vertex -37.6667 -13.4944 3
    endloop
  endfacet
  facet normal -0.4714 -0.881919 -0
    outer loop
      vertex -37.1481 -13.7716 3
      vertex -37.6667 -13.4944 0
      vertex -37.1481 -13.7716 0
    endloop
  endfacet
  facet normal -0.097938 0.995193 0
    outer loop
      vertex -36 14 0
      vertex -36.5853 13.9424 3
      vertex -36 14 3
    endloop
  endfacet
  facet normal -0.097938 0.995193 0
    outer loop
      vertex -36.5853 13.9424 3
      vertex -36 14 0
      vertex -36.5853 13.9424 0
    endloop
  endfacet
  facet normal -0.290404 0.956904 0
    outer loop
      vertex -36.5853 13.9424 0
      vertex -37.1481 13.7716 3
      vertex -36.5853 13.9424 3
    endloop
  endfacet
  facet normal -0.290404 0.956904 0
    outer loop
      vertex -37.1481 13.7716 3
      vertex -36.5853 13.9424 0
      vertex -37.1481 13.7716 0
    endloop
  endfacet
  facet normal 0.881919 0.4714 0
    outer loop
      vertex 38.7716 12.1481 3
      vertex 38.4944 12.6667 0
      vertex 38.4944 12.6667 3
    endloop
  endfacet
  facet normal 0.881919 0.4714 0
    outer loop
      vertex 38.4944 12.6667 0
      vertex 38.7716 12.1481 3
      vertex 38.7716 12.1481 0
    endloop
  endfacet
  facet normal -0.097938 -0.995193 0
    outer loop
      vertex -36.5853 -13.9424 0
      vertex -36 -14 3
      vertex -36.5853 -13.9424 3
    endloop
  endfacet
  facet normal -0.097938 -0.995193 -0
    outer loop
      vertex -36 -14 3
      vertex -36.5853 -13.9424 0
      vertex -36 -14 0
    endloop
  endfacet
  facet normal -0.995193 0.097938 0
    outer loop
      vertex -39 11 0
      vertex -38.9424 11.5853 3
      vertex -38.9424 11.5853 0
    endloop
  endfacet
  facet normal -0.995193 0.097938 0
    outer loop
      vertex -38.9424 11.5853 3
      vertex -39 11 0
      vertex -39 11 3
    endloop
  endfacet
  facet normal -0.881919 -0.4714 0
    outer loop
      vertex -38.4944 -12.6667 0
      vertex -38.7716 -12.1481 3
      vertex -38.7716 -12.1481 0
    endloop
  endfacet
  facet normal -0.881919 -0.4714 0
    outer loop
      vertex -38.7716 -12.1481 3
      vertex -38.4944 -12.6667 0
      vertex -38.4944 -12.6667 3
    endloop
  endfacet
  facet normal 0 0 -1
    outer loop
      vertex 36 -14 0
      vertex 39 -11 0
      vertex 38.9424 -11.5853 0
    endloop
  endfacet
  facet normal 0 0 -1
    outer loop
      vertex 39 -11 0
      vertex 31.3 0 0
      vertex 39 11 0
    endloop
  endfacet
  facet normal 0 0 -1
    outer loop
      vertex 36 -14 0
      vertex 38.9424 -11.5853 0
      vertex 38.7716 -12.1481 0
    endloop
  endfacet
  facet normal 0 0 -1
    outer loop
      vertex 31.1789 1.22907 0
      vertex 39 11 0
      vertex 31.3 0 0
    endloop
  endfacet
  facet normal 0 0 -1
    outer loop
      vertex 36 -14 0
      vertex 38.7716 -12.1481 0
      vertex 38.4944 -12.6667 0
    endloop
  endfacet
  facet normal 0 0 -1
    outer loop
      vertex 30.8204 2.4109 0
      vertex 39 11 0
      vertex 31.1789 1.22907 0
    endloop
  endfacet
  facet normal 0 0 -1
    outer loop
      vertex 36 -14 0
      vertex 38.4944 -12.6667 0
      vertex 38.1213 -13.1213 0
    endloop
  endfacet
  facet normal 0 0 -1
    outer loop
      vertex 30.2383 3.50009 0
      vertex 39 11 0
      vertex 30.8204 2.4109 0
    endloop
  endfacet
  facet normal 0 0 -1
    outer loop
      vertex 36 -14 0
      vertex 38.1213 -13.1213 0
      vertex 37.6667 -13.4944 0
    endloop
  endfacet
  facet normal 0 0 -1
    outer loop
      vertex 29.4548 4.45477 0
      vertex 39 11 0
      vertex 30.2383 3.50009 0
    endloop
  endfacet
  facet normal 0 0 -1
    outer loop
      vertex 36 -14 0
      vertex 37.6667 -13.4944 0
      vertex 37.1481 -13.7716 0
    endloop
  endfacet
  facet normal 0 -0 -1
    outer loop
      vertex 36 14 0
      vertex 39 11 0
      vertex 29.4548 4.45477 0
    endloop
  endfacet
  facet normal 0 0 -1
    outer loop
      vertex 36 -14 0
      vertex 37.1481 -13.7716 0
      vertex 36.5853 -13.9424 0
    endloop
  endfacet
  facet normal 0 0 -1
    outer loop
      vertex 39 11 0
      vertex 36 14 0
      vertex 38.9424 11.5853 0
    endloop
  endfacet
  facet normal -0 0 -1
    outer loop
      vertex 39 -11 0
      vertex 36 -14 0
      vertex 29.4548 -4.45477 0
    endloop
  endfacet
  facet normal 0 0 -1
    outer loop
      vertex 38.9424 11.5853 0
      vertex 36 14 0
      vertex 38.7716 12.1481 0
    endloop
  endfacet
  facet normal 0 0 -1
    outer loop
      vertex 38.4944 12.6667 0
      vertex 36 14 0
      vertex 38.1213 13.1213 0
    endloop
  endfacet
  facet normal 0 0 -1
    outer loop
      vertex 39 -11 0
      vertex 31.1789 -1.22907 0
      vertex 31.3 0 0
    endloop
  endfacet
  facet normal 0 0 -1
    outer loop
      vertex 39 -11 0
      vertex 30.8204 -2.4109 0
      vertex 31.1789 -1.22907 0
    endloop
  endfacet
  facet normal 0 0 -1
    outer loop
      vertex 39 -11 0
      vertex 30.2383 -3.50009 0
      vertex 30.8204 -2.4109 0
    endloop
  endfacet
  facet normal 0 0 -1
    outer loop
      vertex 39 -11 0
      vertex 29.4548 -4.45477 0
      vertex 30.2383 -3.50009 0
    endloop
  endfacet
  facet normal 0 0 -1
    outer loop
      vertex 36 -14 0
      vertex 28.5001 -5.23826 0
      vertex 29.4548 -4.45477 0
    endloop
  endfacet
  facet normal 0 0 -1
    outer loop
      vertex 36 -14 0
      vertex 27.4109 -5.82044 0
      vertex 28.5001 -5.23826 0
    endloop
  endfacet
  facet normal 0 0 -1
    outer loop
      vertex 36 -14 0
      vertex 26.2291 -6.17895 0
      vertex 27.4109 -5.82044 0
    endloop
  endfacet
  facet normal 0 0 -1
    outer loop
      vertex 36 -14 0
      vertex 25 -6.3 0
      vertex 26.2291 -6.17895 0
    endloop
  endfacet
  facet normal 0 0 -1
    outer loop
      vertex 36 -14 0
      vertex 23.7709 -6.17895 0
      vertex 25 -6.3 0
    endloop
  endfacet
  facet normal 0 0 -1
    outer loop
      vertex 36 -14 0
      vertex 22.5891 -5.82044 0
      vertex 23.7709 -6.17895 0
    endloop
  endfacet
  facet normal 0 0 -1
    outer loop
      vertex 2.37264 -5.72805 0
      vertex 22.5891 -5.82044 0
      vertex 36 -14 0
    endloop
  endfacet
  facet normal 0 0 -1
    outer loop
      vertex 18.8211 -1.22907 0
      vertex 6.2 0 0
      vertex 18.7 0 0
    endloop
  endfacet
  facet normal 0 0 -1
    outer loop
      vertex 6.08087 -1.20956 0
      vertex 18.8211 -1.22907 0
      vertex 19.1796 -2.4109 0
    endloop
  endfacet
  facet normal 0 0 -1
    outer loop
      vertex 5.72805 -2.37264 0
      vertex 19.1796 -2.4109 0
      vertex 19.7617 -3.50009 0
    endloop
  endfacet
  facet normal 0 0 -1
    outer loop
      vertex 5.15511 -3.44454 0
      vertex 19.7617 -3.50009 0
      vertex 20.5452 -4.45477 0
    endloop
  endfacet
  facet normal 0 0 -1
    outer loop
      vertex 4.38406 -4.38406 0
      vertex 20.5452 -4.45477 0
      vertex 21.4999 -5.23826 0
    endloop
  endfacet
  facet normal 0 0 -1
    outer loop
      vertex 22.5891 -5.82044 0
      vertex 2.37264 -5.72805 0
      vertex 21.4999 -5.23826 0
    endloop
  endfacet
  facet normal 0 0 -1
    outer loop
      vertex 18.8211 -1.22907 0
      vertex 6.08087 -1.20956 0
      vertex 6.2 0 0
    endloop
  endfacet
  facet normal 0 0 -1
    outer loop
      vertex 19.1796 -2.4109 0
      vertex 5.72805 -2.37264 0
      vertex 6.08087 -1.20956 0
    endloop
  endfacet
  facet normal 0 0 -1
    outer loop
      vertex 19.7617 -3.50009 0
      vertex 5.15511 -3.44454 0
      vertex 5.72805 -2.37264 0
    endloop
  endfacet
  facet normal 0 0 -1
    outer loop
      vertex 20.5452 -4.45477 0
      vertex 4.38406 -4.38406 0
      vertex 5.15511 -3.44454 0
    endloop
  endfacet
  facet normal 0 0 -1
    outer loop
      vertex 21.4999 -5.23826 0
      vertex 3.44454 -5.15511 0
      vertex 4.38406 -4.38406 0
    endloop
  endfacet
  facet normal -0 0 -1
    outer loop
      vertex 21.4999 -5.23826 0
      vertex 2.37264 -5.72805 0
      vertex 3.44454 -5.15511 0
    endloop
  endfacet
  facet normal 0 0 -1
    outer loop
      vertex 36 -14 0
      vertex 1.20956 -6.08087 0
      vertex 2.37264 -5.72805 0
    endloop
  endfacet
  facet normal 0 0 -1
    outer loop
      vertex 36 -14 0
      vertex 0 -6.2 0
      vertex 1.20956 -6.08087 0
    endloop
  endfacet
  facet normal 0 0 -1
    outer loop
      vertex -36 -14 0
      vertex 0 -6.2 0
      vertex 36 -14 0
    endloop
  endfacet
  facet normal 0 0 -1
    outer loop
      vertex -6.08087 -1.20956 0
      vertex -18.9 0 0
      vertex -6.2 0 0
    endloop
  endfacet
  facet normal 0 0 -1
    outer loop
      vertex -19.0172 -1.19005 0
      vertex -6.08087 -1.20956 0
      vertex -5.72805 -2.37264 0
    endloop
  endfacet
  facet normal 0 0 -1
    outer loop
      vertex -19.3643 -2.33437 0
      vertex -5.72805 -2.37264 0
      vertex -5.15511 -3.44454 0
    endloop
  endfacet
  facet normal 0 0 -1
    outer loop
      vertex -19.928 -3.38898 0
      vertex -5.15511 -3.44454 0
      vertex -4.38406 -4.38406 0
    endloop
  endfacet
  facet normal 0 0 -1
    outer loop
      vertex -20.6866 -4.31335 0
      vertex -4.38406 -4.38406 0
      vertex -3.44454 -5.15511 0
    endloop
  endfacet
  facet normal 0 0 -1
    outer loop
      vertex -21.611 -5.07196 0
      vertex -3.44454 -5.15511 0
      vertex -2.37264 -5.72805 0
    endloop
  endfacet
  facet normal 0 0 -1
    outer loop
      vertex -6.08087 -1.20956 0
      vertex -19.0172 -1.19005 0
      vertex -18.9 0 0
    endloop
  endfacet
  facet normal 0 0 -1
    outer loop
      vertex -36 -14 0
      vertex -2.37264 -5.72805 0
      vertex -1.20956 -6.08087 0
    endloop
  endfacet
  facet normal 0 0 -1
    outer loop
      vertex -5.72805 -2.37264 0
      vertex -19.3643 -2.33437 0
      vertex -19.0172 -1.19005 0
    endloop
  endfacet
  facet normal -0 0 -1
    outer loop
      vertex 0 -6.2 0
      vertex -36 -14 0
      vertex -1.20956 -6.08087 0
    endloop
  endfacet
  facet normal 0 0 -1
    outer loop
      vertex -5.15511 -3.44454 0
      vertex -19.928 -3.38898 0
      vertex -19.3643 -2.33437 0
    endloop
  endfacet
  facet normal 0 0 -1
    outer loop
      vertex -4.38406 -4.38406 0
      vertex -20.6866 -4.31335 0
      vertex -19.928 -3.38898 0
    endloop
  endfacet
  facet normal 0 0 -1
    outer loop
      vertex -3.44454 -5.15511 0
      vertex -21.611 -5.07196 0
      vertex -20.6866 -4.31335 0
    endloop
  endfacet
  facet normal 0 0 -1
    outer loop
      vertex -2.37264 -5.72805 0
      vertex -22.6656 -5.63566 0
      vertex -21.611 -5.07196 0
    endloop
  endfacet
  facet normal -0 0 -1
    outer loop
      vertex -2.37264 -5.72805 0
      vertex -36 -14 0
      vertex -22.6656 -5.63566 0
    endloop
  endfacet
  facet normal 0 0 -1
    outer loop
      vertex -22.6656 -5.63566 0
      vertex -36 -14 0
      vertex -23.8099 -5.98279 0
    endloop
  endfacet
  facet normal 0 0 -1
    outer loop
      vertex -23.8099 -5.98279 0
      vertex -36 -14 0
      vertex -25 -6.1 0
    endloop
  endfacet
  facet normal -0 0 -1
    outer loop
      vertex -30.6357 -2.33437 0
      vertex -39 -11 0
      vertex -30.9828 -1.19005 0
    endloop
  endfacet
  facet normal -0 0 -1
    outer loop
      vertex -30.072 -3.38898 0
      vertex -39 -11 0
      vertex -30.6357 -2.33437 0
    endloop
  endfacet
  facet normal -0 0 -1
    outer loop
      vertex -29.3134 -4.31335 0
      vertex -39 -11 0
      vertex -30.072 -3.38898 0
    endloop
  endfacet
  facet normal 0 0 -1
    outer loop
      vertex -39 -11 0
      vertex -29.3134 -4.31335 0
      vertex -36 -14 0
    endloop
  endfacet
  facet normal -0 0 -1
    outer loop
      vertex -28.389 -5.07196 0
      vertex -36 -14 0
      vertex -29.3134 -4.31335 0
    endloop
  endfacet
  facet normal -0 0 -1
    outer loop
      vertex -27.3344 -5.63566 0
      vertex -36 -14 0
      vertex -28.389 -5.07196 0
    endloop
  endfacet
  facet normal -0 0 -1
    outer loop
      vertex -26.1901 -5.98279 0
      vertex -36 -14 0
      vertex -27.3344 -5.63566 0
    endloop
  endfacet
  facet normal -0 0 -1
    outer loop
      vertex -25 -6.1 0
      vertex -36 -14 0
      vertex -26.1901 -5.98279 0
    endloop
  endfacet
  facet normal 0 0 -1
    outer loop
      vertex 38.1213 13.1213 0
      vertex 36 14 0
      vertex 37.6667 13.4944 0
    endloop
  endfacet
  facet normal 0 0 -1
    outer loop
      vertex 37.6667 13.4944 0
      vertex 36 14 0
      vertex 37.1481 13.7716 0
    endloop
  endfacet
  facet normal 0 0 -1
    outer loop
      vertex 37.1481 13.7716 0
      vertex 36 14 0
      vertex 36.5853 13.9424 0
    endloop
  endfacet
  facet normal 0 0 -1
    outer loop
      vertex 38.7716 12.1481 0
      vertex 36 14 0
      vertex 38.4944 12.6667 0
    endloop
  endfacet
  facet normal 0 0 -1
    outer loop
      vertex 28.5001 5.23826 0
      vertex 36 14 0
      vertex 29.4548 4.45477 0
    endloop
  endfacet
  facet normal 0 0 -1
    outer loop
      vertex 27.4109 5.82044 0
      vertex 36 14 0
      vertex 28.5001 5.23826 0
    endloop
  endfacet
  facet normal 0 0 -1
    outer loop
      vertex 26.2291 6.17895 0
      vertex 36 14 0
      vertex 27.4109 5.82044 0
    endloop
  endfacet
  facet normal 0 0 -1
    outer loop
      vertex 25 6.3 0
      vertex 36 14 0
      vertex 26.2291 6.17895 0
    endloop
  endfacet
  facet normal 0 0 -1
    outer loop
      vertex 23.7709 6.17895 0
      vertex 36 14 0
      vertex 25 6.3 0
    endloop
  endfacet
  facet normal 0 0 -1
    outer loop
      vertex 22.5891 5.82044 0
      vertex 36 14 0
      vertex 23.7709 6.17895 0
    endloop
  endfacet
  facet normal 0 0 -1
    outer loop
      vertex 2.37264 5.72805 0
      vertex 22.5891 5.82044 0
      vertex 21.4999 5.23826 0
    endloop
  endfacet
  facet normal 0 0 -1
    outer loop
      vertex 6.2 0 0
      vertex 18.8211 1.22907 0
      vertex 18.7 0 0
    endloop
  endfacet
  facet normal 0 0 -1
    outer loop
      vertex 6.08087 1.20956 0
      vertex 18.8211 1.22907 0
      vertex 6.2 0 0
    endloop
  endfacet
  facet normal -0 0 -1
    outer loop
      vertex 18.8211 1.22907 0
      vertex 6.08087 1.20956 0
      vertex 19.1796 2.4109 0
    endloop
  endfacet
  facet normal 0 0 -1
    outer loop
      vertex 5.72805 2.37264 0
      vertex 19.1796 2.4109 0
      vertex 6.08087 1.20956 0
    endloop
  endfacet
  facet normal -0 0 -1
    outer loop
      vertex 19.1796 2.4109 0
      vertex 5.72805 2.37264 0
      vertex 19.7617 3.50009 0
    endloop
  endfacet
  facet normal 0 0 -1
    outer loop
      vertex 5.15511 3.44454 0
      vertex 19.7617 3.50009 0
      vertex 5.72805 2.37264 0
    endloop
  endfacet
  facet normal -0 0 -1
    outer loop
      vertex 19.7617 3.50009 0
      vertex 5.15511 3.44454 0
      vertex 20.5452 4.45477 0
    endloop
  endfacet
  facet normal 0 0 -1
    outer loop
      vertex 4.38406 4.38406 0
      vertex 20.5452 4.45477 0
      vertex 5.15511 3.44454 0
    endloop
  endfacet
  facet normal -0 0 -1
    outer loop
      vertex 20.5452 4.45477 0
      vertex 4.38406 4.38406 0
      vertex 21.4999 5.23826 0
    endloop
  endfacet
  facet normal 0 0 -1
    outer loop
      vertex 3.44454 5.15511 0
      vertex 21.4999 5.23826 0
      vertex 4.38406 4.38406 0
    endloop
  endfacet
  facet normal 0 0 -1
    outer loop
      vertex 2.37264 5.72805 0
      vertex 21.4999 5.23826 0
      vertex 3.44454 5.15511 0
    endloop
  endfacet
  facet normal -0 0 -1
    outer loop
      vertex 22.5891 5.82044 0
      vertex 2.37264 5.72805 0
      vertex 36 14 0
    endloop
  endfacet
  facet normal 0 0 -1
    outer loop
      vertex 1.20956 6.08087 0
      vertex 36 14 0
      vertex 2.37264 5.72805 0
    endloop
  endfacet
  facet normal 0 0 -1
    outer loop
      vertex 0 6.2 0
      vertex 36 14 0
      vertex 1.20956 6.08087 0
    endloop
  endfacet
  facet normal 0 0 -1
    outer loop
      vertex -36 14 0
      vertex 0 6.2 0
      vertex -1.20956 6.08087 0
    endloop
  endfacet
  facet normal 0 0 -1
    outer loop
      vertex -18.9 0 0
      vertex -6.08087 1.20956 0
      vertex -6.2 0 0
    endloop
  endfacet
  facet normal 0 0 -1
    outer loop
      vertex -19.0172 1.19005 0
      vertex -6.08087 1.20956 0
      vertex -18.9 0 0
    endloop
  endfacet
  facet normal -0 0 -1
    outer loop
      vertex -6.08087 1.20956 0
      vertex -19.0172 1.19005 0
      vertex -5.72805 2.37264 0
    endloop
  endfacet
  facet normal 0 0 -1
    outer loop
      vertex -19.3643 2.33437 0
      vertex -5.72805 2.37264 0
      vertex -19.0172 1.19005 0
    endloop
  endfacet
  facet normal -0 0 -1
    outer loop
      vertex -5.72805 2.37264 0
      vertex -19.3643 2.33437 0
      vertex -5.15511 3.44454 0
    endloop
  endfacet
  facet normal 0 0 -1
    outer loop
      vertex -19.928 3.38898 0
      vertex -5.15511 3.44454 0
      vertex -19.3643 2.33437 0
    endloop
  endfacet
  facet normal -0 0 -1
    outer loop
      vertex -5.15511 3.44454 0
      vertex -19.928 3.38898 0
      vertex -4.38406 4.38406 0
    endloop
  endfacet
  facet normal 0 0 -1
    outer loop
      vertex -20.6866 4.31335 0
      vertex -4.38406 4.38406 0
      vertex -19.928 3.38898 0
    endloop
  endfacet
  facet normal -0 0 -1
    outer loop
      vertex -4.38406 4.38406 0
      vertex -20.6866 4.31335 0
      vertex -3.44454 5.15511 0
    endloop
  endfacet
  facet normal 0 0 -1
    outer loop
      vertex -21.611 5.07196 0
      vertex -3.44454 5.15511 0
      vertex -20.6866 4.31335 0
    endloop
  endfacet
  facet normal -0 0 -1
    outer loop
      vertex -3.44454 5.15511 0
      vertex -21.611 5.07196 0
      vertex -2.37264 5.72805 0
    endloop
  endfacet
  facet normal 0 0 -1
    outer loop
      vertex -22.6656 5.63566 0
      vertex -2.37264 5.72805 0
      vertex -21.611 5.07196 0
    endloop
  endfacet
  facet normal 0 0 -1
    outer loop
      vertex -36 14 0
      vertex -2.37264 5.72805 0
      vertex -22.6656 5.63566 0
    endloop
  endfacet
  facet normal 0 0 -1
    outer loop
      vertex -2.37264 5.72805 0
      vertex -36 14 0
      vertex -1.20956 6.08087 0
    endloop
  endfacet
  facet normal 0 0 -1
    outer loop
      vertex -36 14 0
      vertex -22.6656 5.63566 0
      vertex -23.8099 5.98279 0
    endloop
  endfacet
  facet normal 0 0 -1
    outer loop
      vertex -36 14 0
      vertex -23.8099 5.98279 0
      vertex -25 6.1 0
    endloop
  endfacet
  facet normal 0 0 -1
    outer loop
      vertex -36 14 0
      vertex -25 6.1 0
      vertex -26.1901 5.98279 0
    endloop
  endfacet
  facet normal -0 0 -1
    outer loop
      vertex -30.9828 -1.19005 0
      vertex -39 -11 0
      vertex -31.1 0 0
    endloop
  endfacet
  facet normal 0 0 -1
    outer loop
      vertex -39 11 0
      vertex -31.1 0 0
      vertex -39 -11 0
    endloop
  endfacet
  facet normal 0 0 -1
    outer loop
      vertex 0 6.2 0
      vertex -36 14 0
      vertex 36 14 0
    endloop
  endfacet
  facet normal 0 0 -1
    outer loop
      vertex -27.3344 5.63566 0
      vertex -36 14 0
      vertex -26.1901 5.98279 0
    endloop
  endfacet
  facet normal 0 0 -1
    outer loop
      vertex -28.389 5.07196 0
      vertex -36 14 0
      vertex -27.3344 5.63566 0
    endloop
  endfacet
  facet normal 0 0 -1
    outer loop
      vertex -29.3134 4.31335 0
      vertex -36 14 0
      vertex -28.389 5.07196 0
    endloop
  endfacet
  facet normal 0 0 -1
    outer loop
      vertex -39 11 0
      vertex -29.3134 4.31335 0
      vertex -30.072 3.38898 0
    endloop
  endfacet
  facet normal 0 0 -1
    outer loop
      vertex -39 11 0
      vertex -30.072 3.38898 0
      vertex -30.6357 2.33437 0
    endloop
  endfacet
  facet normal 0 0 -1
    outer loop
      vertex -31.1 0 0
      vertex -39 11 0
      vertex -30.9828 1.19005 0
    endloop
  endfacet
  facet normal 0 0 -1
    outer loop
      vertex -39 -11 0
      vertex -36 -14 0
      vertex -36.5853 -13.9424 0
    endloop
  endfacet
  facet normal 0 0 -1
    outer loop
      vertex -30.9828 1.19005 0
      vertex -39 11 0
      vertex -30.6357 2.33437 0
    endloop
  endfacet
  facet normal 0 0 -1
    outer loop
      vertex -39 -11 0
      vertex -36.5853 -13.9424 0
      vertex -37.1481 -13.7716 0
    endloop
  endfacet
  facet normal 0 0 -1
    outer loop
      vertex -29.3134 4.31335 0
      vertex -39 11 0
      vertex -36 14 0
    endloop
  endfacet
  facet normal 0 0 -1
    outer loop
      vertex -39 -11 0
      vertex -37.1481 -13.7716 0
      vertex -37.6667 -13.4944 0
    endloop
  endfacet
  facet normal 0 0 -1
    outer loop
      vertex -36 14 0
      vertex -39 11 0
      vertex -36.5853 13.9424 0
    endloop
  endfacet
  facet normal 0 0 -1
    outer loop
      vertex -39 -11 0
      vertex -37.6667 -13.4944 0
      vertex -38.1213 -13.1213 0
    endloop
  endfacet
  facet normal 0 0 -1
    outer loop
      vertex -36.5853 13.9424 0
      vertex -39 11 0
      vertex -37.1481 13.7716 0
    endloop
  endfacet
  facet normal 0 0 -1
    outer loop
      vertex -39 -11 0
      vertex -38.1213 -13.1213 0
      vertex -38.4944 -12.6667 0
    endloop
  endfacet
  facet normal 0 0 -1
    outer loop
      vertex -37.1481 13.7716 0
      vertex -39 11 0
      vertex -37.6667 13.4944 0
    endloop
  endfacet
  facet normal 0 0 -1
    outer loop
      vertex -39 -11 0
      vertex -38.4944 -12.6667 0
      vertex -38.7716 -12.1481 0
    endloop
  endfacet
  facet normal 0 0 -1
    outer loop
      vertex -37.6667 13.4944 0
      vertex -39 11 0
      vertex -38.1213 13.1213 0
    endloop
  endfacet
  facet normal 0 0 -1
    outer loop
      vertex -39 -11 0
      vertex -38.7716 -12.1481 0
      vertex -38.9424 -11.5853 0
    endloop
  endfacet
  facet normal 0 0 -1
    outer loop
      vertex -38.1213 13.1213 0
      vertex -39 11 0
      vertex -38.4944 12.6667 0
    endloop
  endfacet
  facet normal 0 0 -1
    outer loop
      vertex -38.4944 12.6667 0
      vertex -39 11 0
      vertex -38.7716 12.1481 0
    endloop
  endfacet
  facet normal 0 0 -1
    outer loop
      vertex -38.7716 12.1481 0
      vertex -39 11 0
      vertex -38.9424 11.5853 0
    endloop
  endfacet
  facet normal 0.956904 0.290404 0
    outer loop
      vertex 38.9424 11.5853 3
      vertex 38.7716 12.1481 0
      vertex 38.7716 12.1481 3
    endloop
  endfacet
  facet normal 0.956904 0.290404 0
    outer loop
      vertex 38.7716 12.1481 0
      vertex 38.9424 11.5853 3
      vertex 38.9424 11.5853 0
    endloop
  endfacet
  facet normal -0.881919 0.4714 0
    outer loop
      vertex -38.7716 12.1481 0
      vertex -38.4944 12.6667 3
      vertex -38.4944 12.6667 0
    endloop
  endfacet
  facet normal -0.881919 0.4714 0
    outer loop
      vertex -38.4944 12.6667 3
      vertex -38.7716 12.1481 0
      vertex -38.7716 12.1481 3
    endloop
  endfacet
  facet normal -0.772994 0.634413 0
    outer loop
      vertex -38.4944 12.6667 0
      vertex -38.1213 13.1213 3
      vertex -38.1213 13.1213 0
    endloop
  endfacet
  facet normal -0.772994 0.634413 0
    outer loop
      vertex -38.1213 13.1213 3
      vertex -38.4944 12.6667 0
      vertex -38.4944 12.6667 3
    endloop
  endfacet
  facet normal -0.634413 0.772994 0
    outer loop
      vertex -37.6667 13.4944 0
      vertex -38.1213 13.1213 3
      vertex -37.6667 13.4944 3
    endloop
  endfacet
  facet normal -0.634413 0.772994 0
    outer loop
      vertex -38.1213 13.1213 3
      vertex -37.6667 13.4944 0
      vertex -38.1213 13.1213 0
    endloop
  endfacet
  facet normal -0.956904 -0.290404 0
    outer loop
      vertex -38.7716 -12.1481 0
      vertex -38.9424 -11.5853 3
      vertex -38.9424 -11.5853 0
    endloop
  endfacet
  facet normal -0.956904 -0.290404 0
    outer loop
      vertex -38.9424 -11.5853 3
      vertex -38.7716 -12.1481 0
      vertex -38.7716 -12.1481 3
    endloop
  endfacet
  facet normal -0.995193 -0.097938 0
    outer loop
      vertex -38.9424 -11.5853 0
      vertex -39 -11 3
      vertex -39 -11 0
    endloop
  endfacet
  facet normal -0.995193 -0.097938 0
    outer loop
      vertex -39 -11 3
      vertex -38.9424 -11.5853 0
      vertex -38.9424 -11.5853 3
    endloop
  endfacet
  facet normal -0.634413 -0.772994 0
    outer loop
      vertex -38.1213 -13.1213 0
      vertex -37.6667 -13.4944 3
      vertex -38.1213 -13.1213 3
    endloop
  endfacet
  facet normal -0.634413 -0.772994 -0
    outer loop
      vertex -37.6667 -13.4944 3
      vertex -38.1213 -13.1213 0
      vertex -37.6667 -13.4944 0
    endloop
  endfacet
  facet normal -0.772994 -0.634413 0
    outer loop
      vertex -38.1213 -13.1213 0
      vertex -38.4944 -12.6667 3
      vertex -38.4944 -12.6667 0
    endloop
  endfacet
  facet normal -0.772994 -0.634413 0
    outer loop
      vertex -38.4944 -12.6667 3
      vertex -38.1213 -13.1213 0
      vertex -38.1213 -13.1213 3
    endloop
  endfacet
  facet normal 0.097938 0.995193 -0
    outer loop
      vertex 36.5853 13.9424 0
      vertex 36 14 3
      vertex 36.5853 13.9424 3
    endloop
  endfacet
  facet normal 0.097938 0.995193 0
    outer loop
      vertex 36 14 3
      vertex 36.5853 13.9424 0
      vertex 36 14 0
    endloop
  endfacet
  facet normal 0.290404 0.956904 -0
    outer loop
      vertex 37.1481 13.7716 0
      vertex 36.5853 13.9424 3
      vertex 37.1481 13.7716 3
    endloop
  endfacet
  facet normal 0.290404 0.956904 0
    outer loop
      vertex 36.5853 13.9424 3
      vertex 37.1481 13.7716 0
      vertex 36.5853 13.9424 0
    endloop
  endfacet
  facet normal 0.634413 0.772994 -0
    outer loop
      vertex 38.1213 13.1213 0
      vertex 37.6667 13.4944 3
      vertex 38.1213 13.1213 3
    endloop
  endfacet
  facet normal 0.634413 0.772994 0
    outer loop
      vertex 37.6667 13.4944 3
      vertex 38.1213 13.1213 0
      vertex 37.6667 13.4944 0
    endloop
  endfacet
  facet normal -0.956904 0.290404 0
    outer loop
      vertex -38.9424 11.5853 0
      vertex -38.7716 12.1481 3
      vertex -38.7716 12.1481 0
    endloop
  endfacet
  facet normal -0.956904 0.290404 0
    outer loop
      vertex -38.7716 12.1481 3
      vertex -38.9424 11.5853 0
      vertex -38.9424 11.5853 3
    endloop
  endfacet
  facet normal 0.772994 0.634413 0
    outer loop
      vertex 38.4944 12.6667 3
      vertex 38.1213 13.1213 0
      vertex 38.1213 13.1213 3
    endloop
  endfacet
  facet normal 0.772994 0.634413 0
    outer loop
      vertex 38.1213 13.1213 0
      vertex 38.4944 12.6667 3
      vertex 38.4944 12.6667 0
    endloop
  endfacet
  facet normal 0.995193 -0.097938 0
    outer loop
      vertex 38.9424 -11.5853 3
      vertex 39 -11 0
      vertex 39 -11 3
    endloop
  endfacet
  facet normal 0.995193 -0.097938 0
    outer loop
      vertex 39 -11 0
      vertex 38.9424 -11.5853 3
      vertex 38.9424 -11.5853 0
    endloop
  endfacet
  facet normal 0.995193 0.097938 0
    outer loop
      vertex 39 11 3
      vertex 38.9424 11.5853 0
      vertex 38.9424 11.5853 3
    endloop
  endfacet
  facet normal 0.995193 0.097938 0
    outer loop
      vertex 38.9424 11.5853 0
      vertex 39 11 3
      vertex 39 11 0
    endloop
  endfacet
  facet normal 0.956904 -0.290404 0
    outer loop
      vertex 38.7716 -12.1481 3
      vertex 38.9424 -11.5853 0
      vertex 38.9424 -11.5853 3
    endloop
  endfacet
  facet normal 0.956904 -0.290404 0
    outer loop
      vertex 38.9424 -11.5853 0
      vertex 38.7716 -12.1481 3
      vertex 38.7716 -12.1481 0
    endloop
  endfacet
  facet normal 0.881919 -0.4714 0
    outer loop
      vertex 38.4944 -12.6667 3
      vertex 38.7716 -12.1481 0
      vertex 38.7716 -12.1481 3
    endloop
  endfacet
  facet normal 0.881919 -0.4714 0
    outer loop
      vertex 38.7716 -12.1481 0
      vertex 38.4944 -12.6667 3
      vertex 38.4944 -12.6667 0
    endloop
  endfacet
endsolid OpenSCAD_Model
